<svg width="357" height="821" viewBox="0 0 357 821" fill="none" xmlns="http://www.w3.org/2000/svg">
<rect width="357" height="821" fill="#F8F8F8"/>
<path d="M41.584 31.008H47.344V43.104H52.984V48H41.584V31.008ZM67.918 41.64C67.918 42.728 67.718 43.696 67.318 44.544C66.934 45.392 66.406 46.112 65.734 46.704C65.078 47.28 64.31 47.72 63.43 48.024C62.566 48.328 61.654 48.48 60.694 48.48C59.75 48.48 58.838 48.328 57.958 48.024C57.094 47.72 56.334 47.28 55.678 46.704C55.022 46.112 54.494 45.392 54.094 44.544C53.71 43.696 53.518 42.728 53.518 41.64C53.518 40.568 53.71 39.616 54.094 38.784C54.494 37.936 55.022 37.224 55.678 36.648C56.334 36.072 57.094 35.64 57.958 35.352C58.838 35.048 59.75 34.896 60.694 34.896C61.654 34.896 62.566 35.048 63.43 35.352C64.31 35.64 65.078 36.072 65.734 36.648C66.406 37.224 66.934 37.936 67.318 38.784C67.718 39.616 67.918 40.568 67.918 41.64ZM60.694 39.552C60.086 39.552 59.59 39.76 59.206 40.176C58.838 40.592 58.654 41.08 58.654 41.64C58.654 42.232 58.846 42.736 59.23 43.152C59.614 43.568 60.11 43.776 60.718 43.776C61.326 43.776 61.822 43.568 62.206 43.152C62.59 42.736 62.782 42.232 62.782 41.64C62.782 41.08 62.582 40.592 62.182 40.176C61.798 39.76 61.302 39.552 60.694 39.552ZM69.4555 41.64C69.4555 40.824 69.5755 40.024 69.8155 39.24C70.0715 38.456 70.4395 37.752 70.9195 37.128C71.3995 36.504 71.9995 36 72.7195 35.616C73.4395 35.232 74.2715 35.04 75.2155 35.04C75.8875 35.04 76.5435 35.168 77.1835 35.424C77.8395 35.68 78.3755 36.088 78.7915 36.648H78.8635V35.376H84.0715V46.704C84.0715 48.08 83.8475 49.224 83.3995 50.136C82.9515 51.048 82.3515 51.768 81.5995 52.296C80.8635 52.84 80.0235 53.216 79.0795 53.424C78.1355 53.648 77.1755 53.76 76.1995 53.76C74.9995 53.76 73.7995 53.6 72.5995 53.28C71.3995 52.976 70.3515 52.52 69.4555 51.912L71.8795 48.24C72.4875 48.704 73.1275 49.04 73.7995 49.248C74.4715 49.472 75.1115 49.584 75.7195 49.584C76.1195 49.584 76.4955 49.528 76.8475 49.416C77.2155 49.32 77.5355 49.168 77.8075 48.96C78.0795 48.768 78.2955 48.52 78.4555 48.216C78.6155 47.928 78.6955 47.592 78.6955 47.208V46.656H78.6235C78.3195 47.008 77.8635 47.32 77.2555 47.592C76.6635 47.864 75.9835 48 75.2155 48C74.2395 48 73.3915 47.832 72.6715 47.496C71.9515 47.144 71.3515 46.68 70.8715 46.104C70.3915 45.512 70.0315 44.832 69.7915 44.064C69.5675 43.296 69.4555 42.488 69.4555 41.64ZM74.5915 41.64C74.5915 42.248 74.7675 42.76 75.1195 43.176C75.4715 43.576 75.9835 43.776 76.6555 43.776C77.3115 43.776 77.8315 43.568 78.2155 43.152C78.6155 42.736 78.8155 42.232 78.8155 41.64C78.8155 41.08 78.6155 40.592 78.2155 40.176C77.8315 39.76 77.3115 39.552 76.6555 39.552C75.9835 39.552 75.4715 39.76 75.1195 40.176C74.7675 40.592 74.5915 41.08 74.5915 41.64ZM100.59 41.64C100.59 42.728 100.39 43.696 99.9899 44.544C99.6059 45.392 99.0779 46.112 98.4059 46.704C97.7499 47.28 96.9819 47.72 96.1019 48.024C95.2379 48.328 94.3259 48.48 93.3659 48.48C92.4219 48.48 91.5099 48.328 90.6299 48.024C89.7659 47.72 89.0059 47.28 88.3499 46.704C87.6939 46.112 87.1659 45.392 86.7659 44.544C86.3819 43.696 86.1899 42.728 86.1899 41.64C86.1899 40.568 86.3819 39.616 86.7659 38.784C87.1659 37.936 87.6939 37.224 88.3499 36.648C89.0059 36.072 89.7659 35.64 90.6299 35.352C91.5099 35.048 92.4219 34.896 93.3659 34.896C94.3259 34.896 95.2379 35.048 96.1019 35.352C96.9819 35.64 97.7499 36.072 98.4059 36.648C99.0779 37.224 99.6059 37.936 99.9899 38.784C100.39 39.616 100.59 40.568 100.59 41.64ZM93.3659 39.552C92.7579 39.552 92.2619 39.76 91.8779 40.176C91.5099 40.592 91.3259 41.08 91.3259 41.64C91.3259 42.232 91.5179 42.736 91.9019 43.152C92.2859 43.568 92.7819 43.776 93.3899 43.776C93.9979 43.776 94.4939 43.568 94.8779 43.152C95.2619 42.736 95.4539 42.232 95.4539 41.64C95.4539 41.08 95.2539 40.592 94.8539 40.176C94.4699 39.76 93.9739 39.552 93.3659 39.552Z" fill="#16113D"/>
<path d="M108.535 37.584H113.719V42.24H108.559V48H102.943V31.008H114.415V35.784H108.535V37.584ZM124.737 43.032L121.785 48H115.017L121.089 39.144L115.329 31.008H122.217L124.905 35.472L127.473 31.008H134.193L128.529 39.072L134.793 48H127.809L124.737 43.032Z" fill="#4D49B4"/>
<path d="M50.8333 106.5V98.1667H57.5V106.5H50.8333ZM42.5 99.8333V91.5H49.1667V99.8333H42.5ZM47.5 98.1667V93.1667H44.1667V98.1667H47.5ZM42.5 106.5V101.5H49.1667V106.5H42.5ZM44.1667 104.833H47.5V103.167H44.1667V104.833ZM52.5 104.833H55.8333V99.8333H52.5V104.833ZM50.8333 91.5H57.5V96.5H50.8333V91.5ZM52.5 93.1667V94.8333H55.8333V93.1667H52.5Z" fill="#4D49B4"/>
<path d="M71.204 93.588H74.606C75.2407 93.588 75.8753 93.6813 76.51 93.868C77.1447 94.0547 77.7187 94.3487 78.232 94.75C78.7453 95.1513 79.1607 95.6647 79.478 96.29C79.7953 96.9153 79.954 97.6667 79.954 98.544C79.954 99.3933 79.7953 100.131 79.478 100.756C79.1607 101.372 78.7453 101.885 78.232 102.296C77.7187 102.697 77.1447 103.001 76.51 103.206C75.8753 103.402 75.2407 103.5 74.606 103.5H71.204V93.588ZM72.59 102.282H74.326C74.9233 102.282 75.474 102.198 75.978 102.03C76.4913 101.862 76.93 101.619 77.294 101.302C77.6673 100.985 77.9567 100.593 78.162 100.126C78.3673 99.6593 78.47 99.132 78.47 98.544C78.47 97.928 78.3673 97.3867 78.162 96.92C77.9567 96.4533 77.6673 96.066 77.294 95.758C76.93 95.4407 76.4913 95.2027 75.978 95.044C75.474 94.876 74.9233 94.792 74.326 94.792H72.59V102.282ZM85.9144 99.202C85.9144 98.7073 85.7651 98.3433 85.4664 98.11C85.1677 97.8673 84.7711 97.746 84.2764 97.746C83.9031 97.746 83.5484 97.8207 83.2124 97.97C82.8857 98.11 82.6104 98.292 82.3864 98.516L81.6864 97.676C82.0131 97.368 82.4097 97.1253 82.8764 96.948C83.3524 96.7707 83.8611 96.682 84.4024 96.682C84.8784 96.682 85.2891 96.752 85.6344 96.892C85.9891 97.0227 86.2784 97.2047 86.5024 97.438C86.7264 97.6713 86.8944 97.9467 87.0064 98.264C87.1184 98.5813 87.1744 98.922 87.1744 99.286V102.184C87.1744 102.408 87.1791 102.646 87.1884 102.898C87.2071 103.141 87.2351 103.341 87.2724 103.5H86.0824C86.0077 103.183 85.9704 102.865 85.9704 102.548H85.9284C85.6857 102.903 85.3777 103.178 85.0044 103.374C84.6404 103.57 84.2064 103.668 83.7024 103.668C83.4411 103.668 83.1657 103.631 82.8764 103.556C82.5964 103.491 82.3397 103.379 82.1064 103.22C81.8731 103.061 81.6771 102.851 81.5184 102.59C81.3691 102.329 81.2944 102.007 81.2944 101.624C81.2944 101.12 81.4297 100.723 81.7004 100.434C81.9711 100.135 82.3257 99.9113 82.7644 99.762C83.2031 99.6033 83.6977 99.5007 84.2484 99.454C84.7991 99.4073 85.3544 99.384 85.9144 99.384V99.202ZM85.5924 100.336C85.2657 100.336 84.9251 100.35 84.5704 100.378C84.2251 100.406 83.9077 100.462 83.6184 100.546C83.3384 100.63 83.1051 100.756 82.9184 100.924C82.7317 101.092 82.6384 101.316 82.6384 101.596C82.6384 101.792 82.6757 101.955 82.7504 102.086C82.8344 102.217 82.9417 102.324 83.0724 102.408C83.2031 102.492 83.3477 102.553 83.5064 102.59C83.6651 102.618 83.8284 102.632 83.9964 102.632C84.6124 102.632 85.0837 102.45 85.4104 102.086C85.7464 101.713 85.9144 101.246 85.9144 100.686V100.336H85.5924ZM92.9563 98.544C92.8069 98.3013 92.5969 98.1053 92.3263 97.956C92.0556 97.7973 91.7523 97.718 91.4163 97.718C91.2669 97.718 91.1176 97.7367 90.9683 97.774C90.8189 97.802 90.6836 97.8533 90.5623 97.928C90.4503 97.9933 90.3569 98.082 90.2823 98.194C90.2169 98.2967 90.1843 98.4273 90.1843 98.586C90.1843 98.866 90.3103 99.076 90.5623 99.216C90.8143 99.3467 91.1923 99.468 91.6963 99.58C92.0136 99.6547 92.3076 99.7433 92.5783 99.846C92.8489 99.9487 93.0823 100.079 93.2783 100.238C93.4836 100.387 93.6423 100.569 93.7543 100.784C93.8663 100.999 93.9223 101.251 93.9223 101.54C93.9223 101.932 93.8476 102.263 93.6983 102.534C93.5489 102.805 93.3483 103.029 93.0963 103.206C92.8536 103.374 92.5736 103.495 92.2563 103.57C91.9389 103.645 91.6123 103.682 91.2763 103.682C90.7723 103.682 90.2776 103.584 89.7923 103.388C89.3163 103.192 88.9196 102.893 88.6023 102.492L89.5403 101.694C89.7176 101.955 89.9603 102.175 90.2683 102.352C90.5856 102.529 90.9309 102.618 91.3043 102.618C91.4723 102.618 91.6309 102.604 91.7803 102.576C91.9389 102.539 92.0789 102.483 92.2003 102.408C92.3309 102.333 92.4336 102.235 92.5083 102.114C92.5829 101.993 92.6203 101.839 92.6203 101.652C92.6203 101.344 92.4709 101.115 92.1723 100.966C91.8829 100.817 91.4536 100.677 90.8843 100.546C90.6603 100.49 90.4316 100.425 90.1983 100.35C89.9743 100.266 89.7689 100.154 89.5823 100.014C89.3956 99.874 89.2416 99.7013 89.1203 99.496C89.0083 99.2813 88.9523 99.02 88.9523 98.712C88.9523 98.3573 89.0223 98.054 89.1623 97.802C89.3116 97.5407 89.5029 97.3307 89.7363 97.172C89.9696 97.004 90.2356 96.8827 90.5343 96.808C90.8329 96.724 91.1409 96.682 91.4583 96.682C91.9343 96.682 92.3916 96.7753 92.8303 96.962C93.2783 97.1487 93.6236 97.4193 93.8663 97.774L92.9563 98.544ZM96.965 97.872C97.1237 97.5453 97.3943 97.2653 97.777 97.032C98.1597 96.7987 98.589 96.682 99.065 96.682C99.4943 96.682 99.863 96.7567 100.171 96.906C100.479 97.046 100.736 97.2373 100.941 97.48C101.146 97.7227 101.296 98.0073 101.389 98.334C101.492 98.6607 101.543 99.0107 101.543 99.384V103.5H100.227V99.832C100.227 99.5613 100.204 99.3047 100.157 99.062C100.12 98.8193 100.045 98.6047 99.933 98.418C99.821 98.2313 99.667 98.082 99.471 97.97C99.2843 97.858 99.037 97.802 98.729 97.802C98.2063 97.802 97.777 98.0027 97.441 98.404C97.105 98.796 96.937 99.3233 96.937 99.986V103.5H95.621V92.916H96.937V97.872H96.965ZM105.071 102.45V103.5H103.797V92.916H105.113V97.858H105.155C105.379 97.5313 105.691 97.256 106.093 97.032C106.494 96.7987 106.97 96.682 107.521 96.682C108.015 96.682 108.463 96.7707 108.865 96.948C109.275 97.1253 109.625 97.3727 109.915 97.69C110.213 98.0073 110.442 98.3807 110.601 98.81C110.759 99.23 110.839 99.6827 110.839 100.168C110.839 100.653 110.759 101.111 110.601 101.54C110.442 101.969 110.218 102.343 109.929 102.66C109.639 102.977 109.289 103.229 108.879 103.416C108.468 103.593 108.006 103.682 107.493 103.682C107.017 103.682 106.564 103.579 106.135 103.374C105.705 103.159 105.36 102.851 105.099 102.45H105.071ZM109.481 100.168C109.481 99.86 109.434 99.5613 109.341 99.272C109.247 98.9827 109.107 98.726 108.921 98.502C108.734 98.278 108.501 98.1007 108.221 97.97C107.95 97.8393 107.633 97.774 107.269 97.774C106.933 97.774 106.625 97.8393 106.345 97.97C106.074 98.1007 105.841 98.278 105.645 98.502C105.449 98.726 105.295 98.9827 105.183 99.272C105.08 99.5613 105.029 99.8647 105.029 100.182C105.029 100.499 105.08 100.803 105.183 101.092C105.295 101.381 105.449 101.638 105.645 101.862C105.841 102.077 106.074 102.249 106.345 102.38C106.625 102.511 106.933 102.576 107.269 102.576C107.633 102.576 107.95 102.511 108.221 102.38C108.501 102.24 108.734 102.058 108.921 101.834C109.107 101.61 109.247 101.353 109.341 101.064C109.434 100.775 109.481 100.476 109.481 100.168ZM119.389 100.168C119.389 100.681 119.296 101.153 119.109 101.582C118.932 102.011 118.68 102.385 118.353 102.702C118.036 103.01 117.658 103.253 117.219 103.43C116.78 103.598 116.309 103.682 115.805 103.682C115.301 103.682 114.83 103.598 114.391 103.43C113.952 103.253 113.574 103.01 113.257 102.702C112.94 102.385 112.688 102.011 112.501 101.582C112.324 101.153 112.235 100.681 112.235 100.168C112.235 99.6547 112.324 99.188 112.501 98.768C112.688 98.3387 112.94 97.97 113.257 97.662C113.574 97.354 113.952 97.116 114.391 96.948C114.83 96.7707 115.301 96.682 115.805 96.682C116.309 96.682 116.78 96.7707 117.219 96.948C117.658 97.116 118.036 97.354 118.353 97.662C118.68 97.97 118.932 98.3387 119.109 98.768C119.296 99.188 119.389 99.6547 119.389 100.168ZM118.017 100.168C118.017 99.8507 117.966 99.5473 117.863 99.258C117.77 98.9687 117.63 98.7167 117.443 98.502C117.256 98.278 117.023 98.1007 116.743 97.97C116.472 97.8393 116.16 97.774 115.805 97.774C115.45 97.774 115.133 97.8393 114.853 97.97C114.582 98.1007 114.354 98.278 114.167 98.502C113.98 98.7167 113.836 98.9687 113.733 99.258C113.64 99.5473 113.593 99.8507 113.593 100.168C113.593 100.485 113.64 100.789 113.733 101.078C113.836 101.367 113.98 101.624 114.167 101.848C114.354 102.072 114.582 102.249 114.853 102.38C115.133 102.511 115.45 102.576 115.805 102.576C116.16 102.576 116.472 102.511 116.743 102.38C117.023 102.249 117.256 102.072 117.443 101.848C117.63 101.624 117.77 101.367 117.863 101.078C117.966 100.789 118.017 100.485 118.017 100.168ZM125.344 99.202C125.344 98.7073 125.195 98.3433 124.896 98.11C124.597 97.8673 124.201 97.746 123.706 97.746C123.333 97.746 122.978 97.8207 122.642 97.97C122.315 98.11 122.04 98.292 121.816 98.516L121.116 97.676C121.443 97.368 121.839 97.1253 122.306 96.948C122.782 96.7707 123.291 96.682 123.832 96.682C124.308 96.682 124.719 96.752 125.064 96.892C125.419 97.0227 125.708 97.2047 125.932 97.438C126.156 97.6713 126.324 97.9467 126.436 98.264C126.548 98.5813 126.604 98.922 126.604 99.286V102.184C126.604 102.408 126.609 102.646 126.618 102.898C126.637 103.141 126.665 103.341 126.702 103.5H125.512C125.437 103.183 125.4 102.865 125.4 102.548H125.358C125.115 102.903 124.807 103.178 124.434 103.374C124.07 103.57 123.636 103.668 123.132 103.668C122.871 103.668 122.595 103.631 122.306 103.556C122.026 103.491 121.769 103.379 121.536 103.22C121.303 103.061 121.107 102.851 120.948 102.59C120.799 102.329 120.724 102.007 120.724 101.624C120.724 101.12 120.859 100.723 121.13 100.434C121.401 100.135 121.755 99.9113 122.194 99.762C122.633 99.6033 123.127 99.5007 123.678 99.454C124.229 99.4073 124.784 99.384 125.344 99.384V99.202ZM125.022 100.336C124.695 100.336 124.355 100.35 124 100.378C123.655 100.406 123.337 100.462 123.048 100.546C122.768 100.63 122.535 100.756 122.348 100.924C122.161 101.092 122.068 101.316 122.068 101.596C122.068 101.792 122.105 101.955 122.18 102.086C122.264 102.217 122.371 102.324 122.502 102.408C122.633 102.492 122.777 102.553 122.936 102.59C123.095 102.618 123.258 102.632 123.426 102.632C124.042 102.632 124.513 102.45 124.84 102.086C125.176 101.713 125.344 101.246 125.344 100.686V100.336H125.022ZM128.802 98.292C128.802 98.1147 128.797 97.886 128.788 97.606C128.779 97.326 128.765 97.0787 128.746 96.864H129.992C130.011 97.032 130.025 97.228 130.034 97.452C130.043 97.6667 130.048 97.844 130.048 97.984H130.09C130.277 97.592 130.547 97.2793 130.902 97.046C131.266 96.8033 131.672 96.682 132.12 96.682C132.325 96.682 132.498 96.7007 132.638 96.738L132.582 97.956C132.395 97.9093 132.195 97.886 131.98 97.886C131.663 97.886 131.387 97.9467 131.154 98.068C130.921 98.18 130.725 98.334 130.566 98.53C130.417 98.726 130.305 98.9547 130.23 99.216C130.155 99.468 130.118 99.734 130.118 100.014V103.5H128.802V98.292ZM138.92 102.45C138.668 102.851 138.323 103.159 137.884 103.374C137.455 103.579 137.002 103.682 136.526 103.682C136.013 103.682 135.551 103.593 135.14 103.416C134.729 103.229 134.379 102.977 134.09 102.66C133.801 102.343 133.577 101.969 133.418 101.54C133.259 101.111 133.18 100.653 133.18 100.168C133.18 99.6827 133.259 99.23 133.418 98.81C133.577 98.3807 133.801 98.0073 134.09 97.69C134.389 97.3727 134.743 97.1253 135.154 96.948C135.565 96.7707 136.017 96.682 136.512 96.682C137.053 96.682 137.525 96.7987 137.926 97.032C138.327 97.256 138.645 97.5313 138.878 97.858H138.906V92.916H140.222V103.5H138.948V102.45H138.92ZM134.552 100.168C134.552 100.476 134.599 100.775 134.692 101.064C134.785 101.353 134.925 101.61 135.112 101.834C135.299 102.058 135.527 102.24 135.798 102.38C136.069 102.511 136.386 102.576 136.75 102.576C137.086 102.576 137.389 102.511 137.66 102.38C137.94 102.249 138.178 102.077 138.374 101.862C138.57 101.638 138.719 101.381 138.822 101.092C138.934 100.803 138.99 100.499 138.99 100.182C138.99 99.8647 138.934 99.5613 138.822 99.272C138.719 98.9827 138.57 98.726 138.374 98.502C138.178 98.278 137.94 98.1007 137.66 97.97C137.389 97.8393 137.086 97.774 136.75 97.774C136.386 97.774 136.069 97.8393 135.798 97.97C135.527 98.1007 135.299 98.278 135.112 98.502C134.925 98.726 134.785 98.9827 134.692 99.272C134.599 99.5613 134.552 99.86 134.552 100.168Z" fill="#4D49B4"/>
<path d="M51.6666 156.877V158.618C50.9124 158.352 50.1052 158.27 49.3128 158.38C48.5204 158.49 47.766 158.788 47.1128 159.25C46.4597 159.712 45.9269 160.324 45.5593 161.034C45.1916 161.745 44.9998 162.533 45 163.333L43.3333 163.332C43.3331 162.315 43.5657 161.311 44.0136 160.397C44.4614 159.483 45.1124 158.684 45.9168 158.061C46.7212 157.438 47.6576 157.007 48.6543 156.801C49.6509 156.596 50.6814 156.621 51.6666 156.876V156.877ZM50 155.833C47.2375 155.833 45 153.596 45 150.833C45 148.071 47.2375 145.833 50 145.833C52.7625 145.833 55 148.071 55 150.833C55 153.596 52.7625 155.833 50 155.833ZM50 154.167C51.8416 154.167 53.3333 152.675 53.3333 150.833C53.3333 148.992 51.8416 147.5 50 147.5C48.1583 147.5 46.6666 148.992 46.6666 150.833C46.6666 152.675 48.1583 154.167 50 154.167ZM55 159.167V156.667H56.6666V159.167H59.1666V160.833H56.6666V163.333H55V160.833H52.5V159.167H55Z" fill="#16113D"/>
<path d="M81.2 154.53C81.2 155.295 81.0647 156 80.794 156.644C80.5327 157.279 80.1687 157.829 79.702 158.296C79.2353 158.753 78.68 159.113 78.036 159.374C77.392 159.626 76.692 159.752 75.936 159.752C75.18 159.752 74.48 159.626 73.836 159.374C73.2013 159.113 72.6507 158.753 72.184 158.296C71.7173 157.829 71.3533 157.279 71.092 156.644C70.8307 156 70.7 155.295 70.7 154.53C70.7 153.755 70.8307 153.051 71.092 152.416C71.3533 151.772 71.7173 151.226 72.184 150.778C72.6507 150.321 73.2013 149.966 73.836 149.714C74.48 149.462 75.18 149.336 75.936 149.336C76.692 149.336 77.392 149.462 78.036 149.714C78.68 149.966 79.2353 150.321 79.702 150.778C80.1687 151.226 80.5327 151.772 80.794 152.416C81.0647 153.051 81.2 153.755 81.2 154.53ZM79.702 154.53C79.702 153.989 79.6133 153.48 79.436 153.004C79.2587 152.519 79.0067 152.094 78.68 151.73C78.3533 151.366 77.9567 151.081 77.49 150.876C77.0327 150.661 76.5147 150.554 75.936 150.554C75.3667 150.554 74.8487 150.661 74.382 150.876C73.9247 151.081 73.5327 151.366 73.206 151.73C72.8887 152.094 72.6413 152.519 72.464 153.004C72.2867 153.48 72.198 153.989 72.198 154.53C72.198 155.081 72.2867 155.599 72.464 156.084C72.6413 156.569 72.8933 156.994 73.22 157.358C73.5467 157.713 73.9387 157.993 74.396 158.198C74.8533 158.403 75.3667 158.506 75.936 158.506C76.5053 158.506 77.0233 158.403 77.49 158.198C77.9567 157.993 78.3533 157.713 78.68 157.358C79.0067 156.994 79.2587 156.569 79.436 156.084C79.6133 155.599 79.702 155.081 79.702 154.53ZM84.3309 162.86H83.0149V152.864H84.3029V153.9H84.3449C84.5595 153.545 84.8722 153.256 85.2829 153.032C85.7029 152.799 86.1882 152.682 86.7389 152.682C87.2335 152.682 87.6815 152.771 88.0829 152.948C88.4935 153.125 88.8435 153.373 89.1329 153.69C89.4315 154.007 89.6602 154.381 89.8189 154.81C89.9775 155.23 90.0569 155.683 90.0569 156.168C90.0569 156.653 89.9775 157.111 89.8189 157.54C89.6602 157.969 89.4362 158.343 89.1469 158.66C88.8575 158.977 88.5075 159.229 88.0969 159.416C87.6862 159.593 87.2242 159.682 86.7109 159.682C86.2349 159.682 85.7869 159.579 85.3669 159.374C84.9469 159.169 84.6155 158.879 84.3729 158.506H84.3309V162.86ZM88.6989 156.168C88.6989 155.86 88.6522 155.561 88.5589 155.272C88.4655 154.983 88.3255 154.726 88.1389 154.502C87.9522 154.278 87.7189 154.101 87.4389 153.97C87.1682 153.839 86.8509 153.774 86.4869 153.774C86.1509 153.774 85.8429 153.839 85.5629 153.97C85.2922 154.101 85.0589 154.278 84.8629 154.502C84.6669 154.726 84.5129 154.983 84.4009 155.272C84.2982 155.561 84.2469 155.865 84.2469 156.182C84.2469 156.499 84.2982 156.803 84.4009 157.092C84.5129 157.381 84.6669 157.638 84.8629 157.862C85.0589 158.077 85.2922 158.249 85.5629 158.38C85.8429 158.511 86.1509 158.576 86.4869 158.576C86.8509 158.576 87.1682 158.511 87.4389 158.38C87.7189 158.24 87.9522 158.058 88.1389 157.834C88.3255 157.61 88.4655 157.353 88.5589 157.064C88.6522 156.775 88.6989 156.476 88.6989 156.168ZM96.7459 155.594C96.7366 155.333 96.6899 155.09 96.6059 154.866C96.5312 154.633 96.4146 154.432 96.2559 154.264C96.1066 154.096 95.9152 153.965 95.6819 153.872C95.4579 153.769 95.1919 153.718 94.8839 153.718C94.6039 153.718 94.3379 153.769 94.0859 153.872C93.8432 153.965 93.6286 154.096 93.4419 154.264C93.2646 154.432 93.1152 154.633 92.9939 154.866C92.8819 155.09 92.8166 155.333 92.7979 155.594H96.7459ZM98.0759 156.126C98.0759 156.201 98.0759 156.275 98.0759 156.35C98.0759 156.425 98.0712 156.499 98.0619 156.574H92.7979C92.8072 156.854 92.8679 157.12 92.9799 157.372C93.1012 157.615 93.2599 157.829 93.4559 158.016C93.6519 158.193 93.8759 158.333 94.1279 158.436C94.3892 158.539 94.6646 158.59 94.9539 158.59C95.4019 158.59 95.7892 158.492 96.1159 158.296C96.4426 158.1 96.6992 157.862 96.8859 157.582L97.8099 158.324C97.4552 158.791 97.0352 159.136 96.5499 159.36C96.0739 159.575 95.5419 159.682 94.9539 159.682C94.4499 159.682 93.9832 159.598 93.5539 159.43C93.1246 159.262 92.7559 159.029 92.4479 158.73C92.1399 158.422 91.8972 158.053 91.7199 157.624C91.5426 157.195 91.4539 156.719 91.4539 156.196C91.4539 155.683 91.5379 155.211 91.7059 154.782C91.8832 154.343 92.1259 153.97 92.4339 153.662C92.7419 153.354 93.1059 153.116 93.5259 152.948C93.9459 152.771 94.3986 152.682 94.8839 152.682C95.3692 152.682 95.8079 152.761 96.1999 152.92C96.6012 153.079 96.9372 153.307 97.2079 153.606C97.4879 153.905 97.7026 154.269 97.8519 154.698C98.0012 155.118 98.0759 155.594 98.0759 156.126ZM101.103 152.864C101.122 153.032 101.136 153.223 101.145 153.438C101.155 153.643 101.159 153.816 101.159 153.956H101.201C101.285 153.779 101.397 153.615 101.537 153.466C101.687 153.307 101.855 153.172 102.041 153.06C102.228 152.939 102.433 152.845 102.657 152.78C102.881 152.715 103.115 152.682 103.357 152.682C103.787 152.682 104.155 152.757 104.463 152.906C104.771 153.046 105.028 153.237 105.233 153.48C105.439 153.723 105.588 154.007 105.681 154.334C105.784 154.661 105.835 155.011 105.835 155.384V159.5H104.519V155.818C104.519 155.547 104.496 155.291 104.449 155.048C104.412 154.805 104.337 154.591 104.225 154.404C104.113 154.217 103.959 154.068 103.763 153.956C103.567 153.844 103.315 153.788 103.007 153.788C102.485 153.788 102.055 153.989 101.719 154.39C101.393 154.782 101.229 155.309 101.229 155.972V159.5H99.9133V154.292C99.9133 154.115 99.9086 153.886 99.8993 153.606C99.89 153.326 99.876 153.079 99.8573 152.864H101.103ZM111.792 159.5H110.252L114.55 149.588H115.81L120.066 159.5H118.498L117.49 157.064H112.786L111.792 159.5ZM113.276 155.846H116.986L115.138 151.198L113.276 155.846ZM125.917 154.544C125.777 154.329 125.567 154.152 125.287 154.012C125.007 153.863 124.708 153.788 124.391 153.788C124.045 153.788 123.737 153.853 123.467 153.984C123.205 154.115 122.981 154.292 122.795 154.516C122.608 154.731 122.463 154.983 122.361 155.272C122.267 155.561 122.221 155.865 122.221 156.182C122.221 156.499 122.267 156.803 122.361 157.092C122.463 157.381 122.608 157.638 122.795 157.862C122.981 158.077 123.21 158.249 123.481 158.38C123.751 158.511 124.059 158.576 124.405 158.576C124.741 158.576 125.044 158.511 125.315 158.38C125.595 158.249 125.823 158.072 126.001 157.848L126.883 158.646C126.603 158.973 126.253 159.229 125.833 159.416C125.413 159.593 124.937 159.682 124.405 159.682C123.891 159.682 123.415 159.598 122.977 159.43C122.547 159.262 122.174 159.029 121.857 158.73C121.539 158.422 121.287 158.053 121.101 157.624C120.923 157.195 120.835 156.714 120.835 156.182C120.835 155.659 120.923 155.183 121.101 154.754C121.278 154.325 121.525 153.956 121.843 153.648C122.16 153.34 122.533 153.102 122.963 152.934C123.401 152.766 123.873 152.682 124.377 152.682C124.843 152.682 125.305 152.775 125.763 152.962C126.229 153.149 126.598 153.419 126.869 153.774L125.917 154.544ZM132.835 154.544C132.695 154.329 132.485 154.152 132.205 154.012C131.925 153.863 131.626 153.788 131.309 153.788C130.963 153.788 130.655 153.853 130.385 153.984C130.123 154.115 129.899 154.292 129.713 154.516C129.526 154.731 129.381 154.983 129.279 155.272C129.185 155.561 129.139 155.865 129.139 156.182C129.139 156.499 129.185 156.803 129.279 157.092C129.381 157.381 129.526 157.638 129.713 157.862C129.899 158.077 130.128 158.249 130.399 158.38C130.669 158.511 130.977 158.576 131.323 158.576C131.659 158.576 131.962 158.511 132.233 158.38C132.513 158.249 132.741 158.072 132.919 157.848L133.801 158.646C133.521 158.973 133.171 159.229 132.751 159.416C132.331 159.593 131.855 159.682 131.323 159.682C130.809 159.682 130.333 159.598 129.895 159.43C129.465 159.262 129.092 159.029 128.775 158.73C128.457 158.422 128.205 158.053 128.019 157.624C127.841 157.195 127.753 156.714 127.753 156.182C127.753 155.659 127.841 155.183 128.019 154.754C128.196 154.325 128.443 153.956 128.761 153.648C129.078 153.34 129.451 153.102 129.881 152.934C130.319 152.766 130.791 152.682 131.295 152.682C131.761 152.682 132.223 152.775 132.681 152.962C133.147 153.149 133.516 153.419 133.787 153.774L132.835 154.544ZM141.825 156.168C141.825 156.681 141.731 157.153 141.545 157.582C141.367 158.011 141.115 158.385 140.789 158.702C140.471 159.01 140.093 159.253 139.655 159.43C139.216 159.598 138.745 159.682 138.241 159.682C137.737 159.682 137.265 159.598 136.827 159.43C136.388 159.253 136.01 159.01 135.693 158.702C135.375 158.385 135.123 158.011 134.937 157.582C134.759 157.153 134.671 156.681 134.671 156.168C134.671 155.655 134.759 155.188 134.937 154.768C135.123 154.339 135.375 153.97 135.693 153.662C136.01 153.354 136.388 153.116 136.827 152.948C137.265 152.771 137.737 152.682 138.241 152.682C138.745 152.682 139.216 152.771 139.655 152.948C140.093 153.116 140.471 153.354 140.789 153.662C141.115 153.97 141.367 154.339 141.545 154.768C141.731 155.188 141.825 155.655 141.825 156.168ZM140.453 156.168C140.453 155.851 140.401 155.547 140.299 155.258C140.205 154.969 140.065 154.717 139.879 154.502C139.692 154.278 139.459 154.101 139.179 153.97C138.908 153.839 138.595 153.774 138.241 153.774C137.886 153.774 137.569 153.839 137.289 153.97C137.018 154.101 136.789 154.278 136.603 154.502C136.416 154.717 136.271 154.969 136.169 155.258C136.075 155.547 136.029 155.851 136.029 156.168C136.029 156.485 136.075 156.789 136.169 157.078C136.271 157.367 136.416 157.624 136.603 157.848C136.789 158.072 137.018 158.249 137.289 158.38C137.569 158.511 137.886 158.576 138.241 158.576C138.595 158.576 138.908 158.511 139.179 158.38C139.459 158.249 139.692 158.072 139.879 157.848C140.065 157.624 140.205 157.367 140.299 157.078C140.401 156.789 140.453 156.485 140.453 156.168ZM148.326 159.5C148.307 159.332 148.293 159.145 148.284 158.94C148.274 158.725 148.27 158.548 148.27 158.408H148.242C148.074 158.763 147.789 159.066 147.388 159.318C146.996 159.561 146.557 159.682 146.072 159.682C145.642 159.682 145.269 159.612 144.952 159.472C144.644 159.332 144.387 159.141 144.182 158.898C143.986 158.646 143.836 158.357 143.734 158.03C143.64 157.703 143.594 157.353 143.594 156.98V152.864H144.91V156.532C144.91 156.803 144.928 157.064 144.966 157.316C145.012 157.559 145.092 157.773 145.204 157.96C145.316 158.147 145.47 158.296 145.666 158.408C145.862 158.52 146.114 158.576 146.422 158.576C146.954 158.576 147.383 158.38 147.71 157.988C148.036 157.587 148.2 157.055 148.2 156.392V152.864H149.516V158.072C149.516 158.249 149.52 158.478 149.53 158.758C149.539 159.038 149.553 159.285 149.572 159.5H148.326ZM152.988 152.864C153.007 153.032 153.021 153.223 153.03 153.438C153.039 153.643 153.044 153.816 153.044 153.956H153.086C153.17 153.779 153.282 153.615 153.422 153.466C153.571 153.307 153.739 153.172 153.926 153.06C154.113 152.939 154.318 152.845 154.542 152.78C154.766 152.715 154.999 152.682 155.242 152.682C155.671 152.682 156.04 152.757 156.348 152.906C156.656 153.046 156.913 153.237 157.118 153.48C157.323 153.723 157.473 154.007 157.566 154.334C157.669 154.661 157.72 155.011 157.72 155.384V159.5H156.404V155.818C156.404 155.547 156.381 155.291 156.334 155.048C156.297 154.805 156.222 154.591 156.11 154.404C155.998 154.217 155.844 154.068 155.648 153.956C155.452 153.844 155.2 153.788 154.892 153.788C154.369 153.788 153.94 153.989 153.604 154.39C153.277 154.782 153.114 155.309 153.114 155.972V159.5H151.798V154.292C151.798 154.115 151.793 153.886 151.784 153.606C151.775 153.326 151.761 153.079 151.742 152.864H152.988ZM163.195 153.942H161.431V157.4C161.431 157.801 161.505 158.091 161.655 158.268C161.804 158.436 162.042 158.52 162.369 158.52C162.49 158.52 162.621 158.506 162.761 158.478C162.901 158.45 163.027 158.408 163.139 158.352L163.181 159.43C163.022 159.486 162.845 159.528 162.649 159.556C162.462 159.593 162.266 159.612 162.061 159.612C161.435 159.612 160.955 159.439 160.619 159.094C160.292 158.749 160.129 158.231 160.129 157.54V153.942H158.855V152.864H160.129V150.96H161.431V152.864H163.195V153.942Z" fill="#16113D"/>
<path d="M50 219.333C45.3975 219.333 41.6667 215.602 41.6667 211C41.6667 206.397 45.3975 202.667 50 202.667C54.6025 202.667 58.3334 206.397 58.3334 211C58.3334 215.602 54.6025 219.333 50 219.333ZM50 217.667C51.7681 217.667 53.4638 216.964 54.7141 215.714C55.9643 214.464 56.6667 212.768 56.6667 211C56.6667 209.232 55.9643 207.536 54.7141 206.286C53.4638 205.036 51.7681 204.333 50 204.333C48.2319 204.333 46.5362 205.036 45.286 206.286C44.0357 207.536 43.3334 209.232 43.3334 211C43.3334 212.768 44.0357 214.464 45.286 215.714C46.5362 216.964 48.2319 217.667 50 217.667ZM45.8334 211.833H53.3334V213.5H50V216L45.8334 211.833ZM50 208.5V206L54.1667 210.167H46.6667V208.5H50Z" fill="#16113D"/>
<path d="M71.204 205.588H74.606C75.2407 205.588 75.8753 205.681 76.51 205.868C77.1447 206.055 77.7187 206.349 78.232 206.75C78.7453 207.151 79.1607 207.665 79.478 208.29C79.7953 208.915 79.954 209.667 79.954 210.544C79.954 211.393 79.7953 212.131 79.478 212.756C79.1607 213.372 78.7453 213.885 78.232 214.296C77.7187 214.697 77.1447 215.001 76.51 215.206C75.8753 215.402 75.2407 215.5 74.606 215.5H71.204V205.588ZM72.59 214.282H74.326C74.9233 214.282 75.474 214.198 75.978 214.03C76.4913 213.862 76.93 213.619 77.294 213.302C77.6673 212.985 77.9567 212.593 78.162 212.126C78.3673 211.659 78.47 211.132 78.47 210.544C78.47 209.928 78.3673 209.387 78.162 208.92C77.9567 208.453 77.6673 208.066 77.294 207.758C76.93 207.441 76.4913 207.203 75.978 207.044C75.474 206.876 74.9233 206.792 74.326 206.792H72.59V214.282ZM86.6424 211.594C86.6331 211.333 86.5864 211.09 86.5024 210.866C86.4277 210.633 86.3111 210.432 86.1524 210.264C86.0031 210.096 85.8117 209.965 85.5784 209.872C85.3544 209.769 85.0884 209.718 84.7804 209.718C84.5004 209.718 84.2344 209.769 83.9824 209.872C83.7397 209.965 83.5251 210.096 83.3384 210.264C83.1611 210.432 83.0117 210.633 82.8904 210.866C82.7784 211.09 82.7131 211.333 82.6944 211.594H86.6424ZM87.9724 212.126C87.9724 212.201 87.9724 212.275 87.9724 212.35C87.9724 212.425 87.9677 212.499 87.9584 212.574H82.6944C82.7037 212.854 82.7644 213.12 82.8764 213.372C82.9977 213.615 83.1564 213.829 83.3524 214.016C83.5484 214.193 83.7724 214.333 84.0244 214.436C84.2857 214.539 84.5611 214.59 84.8504 214.59C85.2984 214.59 85.6857 214.492 86.0124 214.296C86.3391 214.1 86.5957 213.862 86.7824 213.582L87.7064 214.324C87.3517 214.791 86.9317 215.136 86.4464 215.36C85.9704 215.575 85.4384 215.682 84.8504 215.682C84.3464 215.682 83.8797 215.598 83.4504 215.43C83.0211 215.262 82.6524 215.029 82.3444 214.73C82.0364 214.422 81.7937 214.053 81.6164 213.624C81.4391 213.195 81.3504 212.719 81.3504 212.196C81.3504 211.683 81.4344 211.211 81.6024 210.782C81.7797 210.343 82.0224 209.97 82.3304 209.662C82.6384 209.354 83.0024 209.116 83.4224 208.948C83.8424 208.771 84.2951 208.682 84.7804 208.682C85.2657 208.682 85.7044 208.761 86.0964 208.92C86.4977 209.079 86.8337 209.307 87.1044 209.606C87.3844 209.905 87.5991 210.269 87.7484 210.698C87.8977 211.118 87.9724 211.594 87.9724 212.126ZM91.1258 218.86H89.8098V208.864H91.0978V209.9H91.1398C91.3544 209.545 91.6671 209.256 92.0778 209.032C92.4978 208.799 92.9831 208.682 93.5338 208.682C94.0284 208.682 94.4764 208.771 94.8778 208.948C95.2884 209.125 95.6384 209.373 95.9278 209.69C96.2264 210.007 96.4551 210.381 96.6138 210.81C96.7724 211.23 96.8518 211.683 96.8518 212.168C96.8518 212.653 96.7724 213.111 96.6138 213.54C96.4551 213.969 96.2311 214.343 95.9418 214.66C95.6524 214.977 95.3024 215.229 94.8918 215.416C94.4811 215.593 94.0191 215.682 93.5058 215.682C93.0298 215.682 92.5818 215.579 92.1618 215.374C91.7418 215.169 91.4104 214.879 91.1678 214.506H91.1258V218.86ZM95.4938 212.168C95.4938 211.86 95.4471 211.561 95.3538 211.272C95.2604 210.983 95.1204 210.726 94.9338 210.502C94.7471 210.278 94.5138 210.101 94.2338 209.97C93.9631 209.839 93.6458 209.774 93.2818 209.774C92.9458 209.774 92.6378 209.839 92.3578 209.97C92.0871 210.101 91.8538 210.278 91.6578 210.502C91.4618 210.726 91.3078 210.983 91.1958 211.272C91.0931 211.561 91.0418 211.865 91.0418 212.182C91.0418 212.499 91.0931 212.803 91.1958 213.092C91.3078 213.381 91.4618 213.638 91.6578 213.862C91.8538 214.077 92.0871 214.249 92.3578 214.38C92.6378 214.511 92.9458 214.576 93.2818 214.576C93.6458 214.576 93.9631 214.511 94.2338 214.38C94.5138 214.24 94.7471 214.058 94.9338 213.834C95.1204 213.61 95.2604 213.353 95.3538 213.064C95.4471 212.775 95.4938 212.476 95.4938 212.168ZM105.403 212.168C105.403 212.681 105.309 213.153 105.123 213.582C104.945 214.011 104.693 214.385 104.367 214.702C104.049 215.01 103.671 215.253 103.233 215.43C102.794 215.598 102.323 215.682 101.819 215.682C101.315 215.682 100.843 215.598 100.405 215.43C99.9662 215.253 99.5882 215.01 99.2708 214.702C98.9535 214.385 98.7015 214.011 98.5148 213.582C98.3375 213.153 98.2488 212.681 98.2488 212.168C98.2488 211.655 98.3375 211.188 98.5148 210.768C98.7015 210.339 98.9535 209.97 99.2708 209.662C99.5882 209.354 99.9662 209.116 100.405 208.948C100.843 208.771 101.315 208.682 101.819 208.682C102.323 208.682 102.794 208.771 103.233 208.948C103.671 209.116 104.049 209.354 104.367 209.662C104.693 209.97 104.945 210.339 105.123 210.768C105.309 211.188 105.403 211.655 105.403 212.168ZM104.031 212.168C104.031 211.851 103.979 211.547 103.877 211.258C103.783 210.969 103.643 210.717 103.457 210.502C103.27 210.278 103.037 210.101 102.757 209.97C102.486 209.839 102.173 209.774 101.819 209.774C101.464 209.774 101.147 209.839 100.867 209.97C100.596 210.101 100.367 210.278 100.181 210.502C99.9942 210.717 99.8495 210.969 99.7468 211.258C99.6535 211.547 99.6068 211.851 99.6068 212.168C99.6068 212.485 99.6535 212.789 99.7468 213.078C99.8495 213.367 99.9942 213.624 100.181 213.848C100.367 214.072 100.596 214.249 100.867 214.38C101.147 214.511 101.464 214.576 101.819 214.576C102.173 214.576 102.486 214.511 102.757 214.38C103.037 214.249 103.27 214.072 103.457 213.848C103.643 213.624 103.783 213.367 103.877 213.078C103.979 212.789 104.031 212.485 104.031 212.168ZM110.812 210.544C110.662 210.301 110.452 210.105 110.182 209.956C109.911 209.797 109.608 209.718 109.272 209.718C109.122 209.718 108.973 209.737 108.824 209.774C108.674 209.802 108.539 209.853 108.418 209.928C108.306 209.993 108.212 210.082 108.138 210.194C108.072 210.297 108.04 210.427 108.04 210.586C108.04 210.866 108.166 211.076 108.418 211.216C108.67 211.347 109.048 211.468 109.552 211.58C109.869 211.655 110.163 211.743 110.434 211.846C110.704 211.949 110.938 212.079 111.134 212.238C111.339 212.387 111.498 212.569 111.61 212.784C111.722 212.999 111.778 213.251 111.778 213.54C111.778 213.932 111.703 214.263 111.554 214.534C111.404 214.805 111.204 215.029 110.952 215.206C110.709 215.374 110.429 215.495 110.112 215.57C109.794 215.645 109.468 215.682 109.132 215.682C108.628 215.682 108.133 215.584 107.648 215.388C107.172 215.192 106.775 214.893 106.458 214.492L107.396 213.694C107.573 213.955 107.816 214.175 108.124 214.352C108.441 214.529 108.786 214.618 109.16 214.618C109.328 214.618 109.486 214.604 109.636 214.576C109.794 214.539 109.934 214.483 110.056 214.408C110.186 214.333 110.289 214.235 110.364 214.114C110.438 213.993 110.476 213.839 110.476 213.652C110.476 213.344 110.326 213.115 110.028 212.966C109.738 212.817 109.309 212.677 108.74 212.546C108.516 212.49 108.287 212.425 108.054 212.35C107.83 212.266 107.624 212.154 107.438 212.014C107.251 211.874 107.097 211.701 106.976 211.496C106.864 211.281 106.808 211.02 106.808 210.712C106.808 210.357 106.878 210.054 107.018 209.802C107.167 209.541 107.358 209.331 107.592 209.172C107.825 209.004 108.091 208.883 108.39 208.808C108.688 208.724 108.996 208.682 109.314 208.682C109.79 208.682 110.247 208.775 110.686 208.962C111.134 209.149 111.479 209.419 111.722 209.774L110.812 210.544ZM114.778 215.5H113.462V208.864H114.778V215.5ZM115.002 206.47C115.002 206.713 114.914 206.913 114.736 207.072C114.568 207.231 114.363 207.31 114.12 207.31C113.878 207.31 113.672 207.231 113.504 207.072C113.336 206.904 113.252 206.703 113.252 206.47C113.252 206.227 113.336 206.027 113.504 205.868C113.672 205.7 113.878 205.616 114.12 205.616C114.363 205.616 114.568 205.7 114.736 205.868C114.914 206.027 115.002 206.227 115.002 206.47ZM120.32 209.942H118.556V213.4C118.556 213.801 118.63 214.091 118.78 214.268C118.929 214.436 119.167 214.52 119.494 214.52C119.615 214.52 119.746 214.506 119.886 214.478C120.026 214.45 120.152 214.408 120.264 214.352L120.306 215.43C120.147 215.486 119.97 215.528 119.774 215.556C119.587 215.593 119.391 215.612 119.186 215.612C118.56 215.612 118.08 215.439 117.744 215.094C117.417 214.749 117.254 214.231 117.254 213.54V209.942H115.98V208.864H117.254V206.96H118.556V208.864H120.32V209.942ZM131.745 213.162L134.013 215.5H132.179L130.947 214.198C130.574 214.665 130.149 215.029 129.673 215.29C129.206 215.551 128.628 215.682 127.937 215.682C127.508 215.682 127.097 215.621 126.705 215.5C126.313 215.379 125.968 215.201 125.669 214.968C125.38 214.725 125.146 214.431 124.969 214.086C124.801 213.731 124.717 213.325 124.717 212.868C124.717 212.495 124.778 212.163 124.899 211.874C125.03 211.575 125.198 211.309 125.403 211.076C125.608 210.843 125.846 210.637 126.117 210.46C126.388 210.283 126.663 210.129 126.943 209.998C126.626 209.671 126.355 209.326 126.131 208.962C125.916 208.589 125.809 208.178 125.809 207.73C125.809 207.329 125.879 206.979 126.019 206.68C126.168 206.381 126.364 206.134 126.607 205.938C126.859 205.733 127.144 205.583 127.461 205.49C127.778 205.387 128.11 205.336 128.455 205.336C128.8 205.336 129.127 205.387 129.435 205.49C129.743 205.583 130.014 205.728 130.247 205.924C130.48 206.12 130.667 206.363 130.807 206.652C130.947 206.941 131.017 207.277 131.017 207.66C131.017 207.987 130.956 208.281 130.835 208.542C130.723 208.803 130.569 209.041 130.373 209.256C130.177 209.471 129.948 209.662 129.687 209.83C129.435 209.998 129.169 210.147 128.889 210.278L130.863 212.308L132.109 210.208H133.649L131.745 213.162ZM129.743 207.688C129.743 207.333 129.622 207.035 129.379 206.792C129.146 206.549 128.842 206.428 128.469 206.428C128.086 206.428 127.769 206.549 127.517 206.792C127.265 207.035 127.139 207.352 127.139 207.744C127.139 207.903 127.167 208.061 127.223 208.22C127.288 208.379 127.368 208.537 127.461 208.696C127.554 208.845 127.657 208.985 127.769 209.116C127.89 209.247 128.007 209.363 128.119 209.466C128.324 209.373 128.525 209.27 128.721 209.158C128.917 209.046 129.09 208.915 129.239 208.766C129.388 208.617 129.51 208.453 129.603 208.276C129.696 208.099 129.743 207.903 129.743 207.688ZM127.713 210.852C127.228 211.057 126.84 211.314 126.551 211.622C126.262 211.93 126.117 212.336 126.117 212.84C126.117 213.101 126.168 213.339 126.271 213.554C126.374 213.769 126.509 213.951 126.677 214.1C126.854 214.249 127.055 214.366 127.279 214.45C127.503 214.525 127.732 214.562 127.965 214.562C128.441 214.562 128.842 214.459 129.169 214.254C129.496 214.039 129.794 213.727 130.065 213.316L127.713 210.852ZM141.32 213.484H141.348L143.672 205.588H145.198L147.508 213.484H147.536L149.72 205.588H151.19L148.278 215.5H146.836L144.428 207.534H144.4L141.992 215.5H140.55L137.638 205.588H139.136L141.32 213.484ZM153.798 215.5H152.482V208.864H153.798V215.5ZM154.022 206.47C154.022 206.713 153.933 206.913 153.756 207.072C153.588 207.231 153.383 207.31 153.14 207.31C152.897 207.31 152.692 207.231 152.524 207.072C152.356 206.904 152.272 206.703 152.272 206.47C152.272 206.227 152.356 206.027 152.524 205.868C152.692 205.7 152.897 205.616 153.14 205.616C153.383 205.616 153.588 205.7 153.756 205.868C153.933 206.027 154.022 206.227 154.022 206.47ZM159.339 209.942H157.575V213.4C157.575 213.801 157.65 214.091 157.799 214.268C157.948 214.436 158.186 214.52 158.513 214.52C158.634 214.52 158.765 214.506 158.905 214.478C159.045 214.45 159.171 214.408 159.283 214.352L159.325 215.43C159.166 215.486 158.989 215.528 158.793 215.556C158.606 215.593 158.41 215.612 158.205 215.612C157.58 215.612 157.099 215.439 156.763 215.094C156.436 214.749 156.273 214.231 156.273 213.54V209.942H154.999V208.864H156.273V206.96H157.575V208.864H159.339V209.942ZM162.07 209.872C162.229 209.545 162.5 209.265 162.882 209.032C163.265 208.799 163.694 208.682 164.17 208.682C164.6 208.682 164.968 208.757 165.276 208.906C165.584 209.046 165.841 209.237 166.046 209.48C166.252 209.723 166.401 210.007 166.494 210.334C166.597 210.661 166.648 211.011 166.648 211.384V215.5H165.332V211.832C165.332 211.561 165.309 211.305 165.262 211.062C165.225 210.819 165.15 210.605 165.038 210.418C164.926 210.231 164.772 210.082 164.576 209.97C164.39 209.858 164.142 209.802 163.834 209.802C163.312 209.802 162.882 210.003 162.546 210.404C162.21 210.796 162.042 211.323 162.042 211.986V215.5H160.726V204.916H162.042V209.872H162.07ZM174.166 214.45C173.914 214.851 173.569 215.159 173.13 215.374C172.701 215.579 172.248 215.682 171.772 215.682C171.259 215.682 170.797 215.593 170.386 215.416C169.976 215.229 169.626 214.977 169.336 214.66C169.047 214.343 168.823 213.969 168.664 213.54C168.506 213.111 168.426 212.653 168.426 212.168C168.426 211.683 168.506 211.23 168.664 210.81C168.823 210.381 169.047 210.007 169.336 209.69C169.635 209.373 169.99 209.125 170.4 208.948C170.811 208.771 171.264 208.682 171.758 208.682C172.3 208.682 172.771 208.799 173.172 209.032C173.574 209.256 173.891 209.531 174.124 209.858H174.152V204.916H175.468V215.5H174.194V214.45H174.166ZM169.798 212.168C169.798 212.476 169.845 212.775 169.938 213.064C170.032 213.353 170.172 213.61 170.358 213.834C170.545 214.058 170.774 214.24 171.044 214.38C171.315 214.511 171.632 214.576 171.996 214.576C172.332 214.576 172.636 214.511 172.906 214.38C173.186 214.249 173.424 214.077 173.62 213.862C173.816 213.638 173.966 213.381 174.068 213.092C174.18 212.803 174.236 212.499 174.236 212.182C174.236 211.865 174.18 211.561 174.068 211.272C173.966 210.983 173.816 210.726 173.62 210.502C173.424 210.278 173.186 210.101 172.906 209.97C172.636 209.839 172.332 209.774 171.996 209.774C171.632 209.774 171.315 209.839 171.044 209.97C170.774 210.101 170.545 210.278 170.358 210.502C170.172 210.726 170.032 210.983 169.938 211.272C169.845 211.561 169.798 211.86 169.798 212.168ZM177.761 210.292C177.761 210.115 177.756 209.886 177.747 209.606C177.738 209.326 177.724 209.079 177.705 208.864H178.951C178.97 209.032 178.984 209.228 178.993 209.452C179.002 209.667 179.007 209.844 179.007 209.984H179.049C179.236 209.592 179.506 209.279 179.861 209.046C180.225 208.803 180.631 208.682 181.079 208.682C181.284 208.682 181.457 208.701 181.597 208.738L181.541 209.956C181.354 209.909 181.154 209.886 180.939 209.886C180.622 209.886 180.346 209.947 180.113 210.068C179.88 210.18 179.684 210.334 179.525 210.53C179.376 210.726 179.264 210.955 179.189 211.216C179.114 211.468 179.077 211.734 179.077 212.014V215.5H177.761V210.292ZM186.785 211.202C186.785 210.707 186.636 210.343 186.337 210.11C186.039 209.867 185.642 209.746 185.147 209.746C184.774 209.746 184.419 209.821 184.083 209.97C183.757 210.11 183.481 210.292 183.257 210.516L182.557 209.676C182.884 209.368 183.281 209.125 183.747 208.948C184.223 208.771 184.732 208.682 185.273 208.682C185.749 208.682 186.16 208.752 186.505 208.892C186.86 209.023 187.149 209.205 187.373 209.438C187.597 209.671 187.765 209.947 187.877 210.264C187.989 210.581 188.045 210.922 188.045 211.286V214.184C188.045 214.408 188.05 214.646 188.059 214.898C188.078 215.141 188.106 215.341 188.143 215.5H186.953C186.879 215.183 186.841 214.865 186.841 214.548H186.799C186.557 214.903 186.249 215.178 185.875 215.374C185.511 215.57 185.077 215.668 184.573 215.668C184.312 215.668 184.037 215.631 183.747 215.556C183.467 215.491 183.211 215.379 182.977 215.22C182.744 215.061 182.548 214.851 182.389 214.59C182.24 214.329 182.165 214.007 182.165 213.624C182.165 213.12 182.301 212.723 182.571 212.434C182.842 212.135 183.197 211.911 183.635 211.762C184.074 211.603 184.569 211.501 185.119 211.454C185.67 211.407 186.225 211.384 186.785 211.384V211.202ZM186.463 212.336C186.137 212.336 185.796 212.35 185.441 212.378C185.096 212.406 184.779 212.462 184.489 212.546C184.209 212.63 183.976 212.756 183.789 212.924C183.603 213.092 183.509 213.316 183.509 213.596C183.509 213.792 183.547 213.955 183.621 214.086C183.705 214.217 183.813 214.324 183.943 214.408C184.074 214.492 184.219 214.553 184.377 214.59C184.536 214.618 184.699 214.632 184.867 214.632C185.483 214.632 185.955 214.45 186.281 214.086C186.617 213.713 186.785 213.246 186.785 212.686V212.336H186.463ZM190.733 208.864L192.231 213.932H192.259L193.841 208.864H195.227L196.837 213.932H196.865L198.363 208.864H199.749L197.551 215.5H196.179L194.541 210.516H194.513L192.889 215.5H191.517L189.305 208.864H190.733Z" fill="#16113D"/>
<path d="M41.6667 267.833H46.6667V274.5H41.6667V267.833ZM53.3334 263.667H58.3334V274.5H53.3334V263.667ZM47.5 259.5H52.5V274.5H47.5V259.5ZM43.3334 269.5V272.833H45V269.5H43.3334ZM49.1667 261.167V272.833H50.8334V261.167H49.1667ZM55 265.333V272.833H56.6667V265.333H55Z" fill="#16113D"/>
<path d="M74.676 271.5H73.29V262.806H70.112V261.588H77.854V262.806H74.676V271.5ZM77.8469 266.292C77.8469 266.115 77.8422 265.886 77.8329 265.606C77.8236 265.326 77.8096 265.079 77.7909 264.864H79.0369C79.0556 265.032 79.0696 265.228 79.0789 265.452C79.0882 265.667 79.0929 265.844 79.0929 265.984H79.1349C79.3216 265.592 79.5922 265.279 79.9469 265.046C80.3109 264.803 80.7169 264.682 81.1649 264.682C81.3702 264.682 81.5429 264.701 81.6829 264.738L81.6269 265.956C81.4402 265.909 81.2396 265.886 81.0249 265.886C80.7076 265.886 80.4322 265.947 80.1989 266.068C79.9656 266.18 79.7696 266.334 79.6109 266.53C79.4616 266.726 79.3496 266.955 79.2749 267.216C79.2002 267.468 79.1629 267.734 79.1629 268.014V271.5H77.8469V266.292ZM86.8714 267.202C86.8714 266.707 86.7221 266.343 86.4234 266.11C86.1248 265.867 85.7281 265.746 85.2334 265.746C84.8601 265.746 84.5054 265.821 84.1694 265.97C83.8428 266.11 83.5674 266.292 83.3434 266.516L82.6434 265.676C82.9701 265.368 83.3668 265.125 83.8334 264.948C84.3094 264.771 84.8181 264.682 85.3594 264.682C85.8354 264.682 86.2461 264.752 86.5914 264.892C86.9461 265.023 87.2354 265.205 87.4594 265.438C87.6834 265.671 87.8514 265.947 87.9634 266.264C88.0754 266.581 88.1314 266.922 88.1314 267.286V270.184C88.1314 270.408 88.1361 270.646 88.1454 270.898C88.1641 271.141 88.1921 271.341 88.2294 271.5H87.0394C86.9648 271.183 86.9274 270.865 86.9274 270.548H86.8854C86.6428 270.903 86.3348 271.178 85.9614 271.374C85.5974 271.57 85.1634 271.668 84.6594 271.668C84.3981 271.668 84.1228 271.631 83.8334 271.556C83.5534 271.491 83.2968 271.379 83.0634 271.22C82.8301 271.061 82.6341 270.851 82.4754 270.59C82.3261 270.329 82.2514 270.007 82.2514 269.624C82.2514 269.12 82.3868 268.723 82.6574 268.434C82.9281 268.135 83.2828 267.911 83.7214 267.762C84.1601 267.603 84.6548 267.501 85.2054 267.454C85.7561 267.407 86.3114 267.384 86.8714 267.384V267.202ZM86.5494 268.336C86.2228 268.336 85.8821 268.35 85.5274 268.378C85.1821 268.406 84.8648 268.462 84.5754 268.546C84.2954 268.63 84.0621 268.756 83.8754 268.924C83.6888 269.092 83.5954 269.316 83.5954 269.596C83.5954 269.792 83.6328 269.955 83.7074 270.086C83.7914 270.217 83.8988 270.324 84.0294 270.408C84.1601 270.492 84.3048 270.553 84.4634 270.59C84.6221 270.618 84.7854 270.632 84.9534 270.632C85.5694 270.632 86.0408 270.45 86.3674 270.086C86.7034 269.713 86.8714 269.246 86.8714 268.686V268.336H86.5494ZM95.6213 270.45C95.3693 270.851 95.024 271.159 94.5853 271.374C94.156 271.579 93.7033 271.682 93.2273 271.682C92.714 271.682 92.252 271.593 91.8413 271.416C91.4306 271.229 91.0806 270.977 90.7913 270.66C90.502 270.343 90.278 269.969 90.1193 269.54C89.9606 269.111 89.8813 268.653 89.8813 268.168C89.8813 267.683 89.9606 267.23 90.1193 266.81C90.278 266.381 90.502 266.007 90.7913 265.69C91.09 265.373 91.4446 265.125 91.8553 264.948C92.266 264.771 92.7186 264.682 93.2133 264.682C93.7546 264.682 94.226 264.799 94.6273 265.032C95.0286 265.256 95.346 265.531 95.5793 265.858H95.6073V260.916H96.9233V271.5H95.6493V270.45H95.6213ZM91.2533 268.168C91.2533 268.476 91.3 268.775 91.3933 269.064C91.4866 269.353 91.6266 269.61 91.8133 269.834C92 270.058 92.2286 270.24 92.4993 270.38C92.77 270.511 93.0873 270.576 93.4513 270.576C93.7873 270.576 94.0906 270.511 94.3613 270.38C94.6413 270.249 94.8793 270.077 95.0753 269.862C95.2713 269.638 95.4206 269.381 95.5233 269.092C95.6353 268.803 95.6913 268.499 95.6913 268.182C95.6913 267.865 95.6353 267.561 95.5233 267.272C95.4206 266.983 95.2713 266.726 95.0753 266.502C94.8793 266.278 94.6413 266.101 94.3613 265.97C94.0906 265.839 93.7873 265.774 93.4513 265.774C93.0873 265.774 92.77 265.839 92.4993 265.97C92.2286 266.101 92 266.278 91.8133 266.502C91.6266 266.726 91.4866 266.983 91.3933 267.272C91.3 267.561 91.2533 267.86 91.2533 268.168ZM100.546 271.5H99.23V264.864H100.546V271.5ZM100.77 262.47C100.77 262.713 100.681 262.913 100.504 263.072C100.336 263.231 100.131 263.31 99.888 263.31C99.6454 263.31 99.44 263.231 99.272 263.072C99.104 262.904 99.02 262.703 99.02 262.47C99.02 262.227 99.104 262.027 99.272 261.868C99.44 261.7 99.6454 261.616 99.888 261.616C100.131 261.616 100.336 261.7 100.504 261.868C100.681 262.027 100.77 262.227 100.77 262.47ZM104.029 264.864C104.048 265.032 104.062 265.223 104.071 265.438C104.08 265.643 104.085 265.816 104.085 265.956H104.127C104.211 265.779 104.323 265.615 104.463 265.466C104.612 265.307 104.78 265.172 104.967 265.06C105.154 264.939 105.359 264.845 105.583 264.78C105.807 264.715 106.04 264.682 106.283 264.682C106.712 264.682 107.081 264.757 107.389 264.906C107.697 265.046 107.954 265.237 108.159 265.48C108.364 265.723 108.514 266.007 108.607 266.334C108.71 266.661 108.761 267.011 108.761 267.384V271.5H107.445V267.818C107.445 267.547 107.422 267.291 107.375 267.048C107.338 266.805 107.263 266.591 107.151 266.404C107.039 266.217 106.885 266.068 106.689 265.956C106.493 265.844 106.241 265.788 105.933 265.788C105.41 265.788 104.981 265.989 104.645 266.39C104.318 266.782 104.155 267.309 104.155 267.972V271.5H102.839V266.292C102.839 266.115 102.834 265.886 102.825 265.606C102.816 265.326 102.802 265.079 102.783 264.864H104.029ZM111.506 272.634C111.795 272.961 112.154 273.222 112.584 273.418C113.022 273.614 113.47 273.712 113.928 273.712C114.366 273.712 114.735 273.647 115.034 273.516C115.332 273.395 115.57 273.222 115.748 272.998C115.934 272.783 116.065 272.527 116.14 272.228C116.224 271.929 116.266 271.607 116.266 271.262V270.408H116.238C115.995 270.781 115.664 271.066 115.244 271.262C114.824 271.458 114.376 271.556 113.9 271.556C113.396 271.556 112.934 271.467 112.514 271.29C112.103 271.113 111.753 270.87 111.464 270.562C111.174 270.254 110.95 269.895 110.792 269.484C110.633 269.064 110.554 268.616 110.554 268.14C110.554 267.664 110.633 267.216 110.792 266.796C110.95 266.376 111.174 266.012 111.464 265.704C111.753 265.387 112.103 265.139 112.514 264.962C112.924 264.775 113.382 264.682 113.886 264.682C114.362 264.682 114.814 264.785 115.244 264.99C115.682 265.195 116.028 265.508 116.28 265.928H116.308V264.864H117.582V271.164C117.582 271.649 117.521 272.111 117.4 272.55C117.278 272.998 117.073 273.39 116.784 273.726C116.494 274.071 116.116 274.347 115.65 274.552C115.183 274.757 114.604 274.86 113.914 274.86C113.335 274.86 112.752 274.753 112.164 274.538C111.585 274.333 111.086 274.039 110.666 273.656L111.506 272.634ZM111.912 268.112C111.912 268.42 111.958 268.714 112.052 268.994C112.154 269.274 112.299 269.521 112.486 269.736C112.682 269.951 112.915 270.123 113.186 270.254C113.456 270.385 113.764 270.45 114.11 270.45C114.446 270.45 114.754 270.389 115.034 270.268C115.314 270.147 115.552 269.983 115.748 269.778C115.944 269.563 116.093 269.316 116.196 269.036C116.308 268.747 116.364 268.439 116.364 268.112C116.364 267.795 116.308 267.496 116.196 267.216C116.093 266.936 115.939 266.689 115.734 266.474C115.538 266.259 115.3 266.091 115.02 265.97C114.749 265.839 114.446 265.774 114.11 265.774C113.764 265.774 113.456 265.839 113.186 265.97C112.915 266.091 112.682 266.259 112.486 266.474C112.299 266.679 112.154 266.927 112.052 267.216C111.958 267.496 111.912 267.795 111.912 268.112ZM123.403 261.588H124.789V265.732H129.801V261.588H131.201V271.5H129.801V266.964H124.789V271.5H123.403V261.588ZM134.862 271.5H133.546V264.864H134.862V271.5ZM135.086 262.47C135.086 262.713 134.998 262.913 134.82 263.072C134.652 263.231 134.447 263.31 134.204 263.31C133.962 263.31 133.756 263.231 133.588 263.072C133.42 262.904 133.336 262.703 133.336 262.47C133.336 262.227 133.42 262.027 133.588 261.868C133.756 261.7 133.962 261.616 134.204 261.616C134.447 261.616 134.652 261.7 134.82 261.868C134.998 262.027 135.086 262.227 135.086 262.47ZM140.739 266.544C140.59 266.301 140.38 266.105 140.109 265.956C139.839 265.797 139.535 265.718 139.199 265.718C139.05 265.718 138.901 265.737 138.751 265.774C138.602 265.802 138.467 265.853 138.345 265.928C138.233 265.993 138.14 266.082 138.065 266.194C138 266.297 137.967 266.427 137.967 266.586C137.967 266.866 138.093 267.076 138.345 267.216C138.597 267.347 138.975 267.468 139.479 267.58C139.797 267.655 140.091 267.743 140.361 267.846C140.632 267.949 140.865 268.079 141.061 268.238C141.267 268.387 141.425 268.569 141.537 268.784C141.649 268.999 141.705 269.251 141.705 269.54C141.705 269.932 141.631 270.263 141.481 270.534C141.332 270.805 141.131 271.029 140.879 271.206C140.637 271.374 140.357 271.495 140.039 271.57C139.722 271.645 139.395 271.682 139.059 271.682C138.555 271.682 138.061 271.584 137.575 271.388C137.099 271.192 136.703 270.893 136.385 270.492L137.323 269.694C137.501 269.955 137.743 270.175 138.051 270.352C138.369 270.529 138.714 270.618 139.087 270.618C139.255 270.618 139.414 270.604 139.563 270.576C139.722 270.539 139.862 270.483 139.983 270.408C140.114 270.333 140.217 270.235 140.291 270.114C140.366 269.993 140.403 269.839 140.403 269.652C140.403 269.344 140.254 269.115 139.955 268.966C139.666 268.817 139.237 268.677 138.667 268.546C138.443 268.49 138.215 268.425 137.981 268.35C137.757 268.266 137.552 268.154 137.365 268.014C137.179 267.874 137.025 267.701 136.903 267.496C136.791 267.281 136.735 267.02 136.735 266.712C136.735 266.357 136.805 266.054 136.945 265.802C137.095 265.541 137.286 265.331 137.519 265.172C137.753 265.004 138.019 264.883 138.317 264.808C138.616 264.724 138.924 264.682 139.241 264.682C139.717 264.682 140.175 264.775 140.613 264.962C141.061 265.149 141.407 265.419 141.649 265.774L140.739 266.544ZM146.624 265.942H144.86V269.4C144.86 269.801 144.935 270.091 145.084 270.268C145.234 270.436 145.472 270.52 145.798 270.52C145.92 270.52 146.05 270.506 146.19 270.478C146.33 270.45 146.456 270.408 146.568 270.352L146.61 271.43C146.452 271.486 146.274 271.528 146.078 271.556C145.892 271.593 145.696 271.612 145.49 271.612C144.865 271.612 144.384 271.439 144.048 271.094C143.722 270.749 143.558 270.231 143.558 269.54V265.942H142.284V264.864H143.558V262.96H144.86V264.864H146.624V265.942ZM154.704 268.168C154.704 268.681 154.61 269.153 154.424 269.582C154.246 270.011 153.994 270.385 153.668 270.702C153.35 271.01 152.972 271.253 152.534 271.43C152.095 271.598 151.624 271.682 151.12 271.682C150.616 271.682 150.144 271.598 149.706 271.43C149.267 271.253 148.889 271.01 148.572 270.702C148.254 270.385 148.002 270.011 147.816 269.582C147.638 269.153 147.55 268.681 147.55 268.168C147.55 267.655 147.638 267.188 147.816 266.768C148.002 266.339 148.254 265.97 148.572 265.662C148.889 265.354 149.267 265.116 149.706 264.948C150.144 264.771 150.616 264.682 151.12 264.682C151.624 264.682 152.095 264.771 152.534 264.948C152.972 265.116 153.35 265.354 153.668 265.662C153.994 265.97 154.246 266.339 154.424 266.768C154.61 267.188 154.704 267.655 154.704 268.168ZM153.332 268.168C153.332 267.851 153.28 267.547 153.178 267.258C153.084 266.969 152.944 266.717 152.758 266.502C152.571 266.278 152.338 266.101 152.058 265.97C151.787 265.839 151.474 265.774 151.12 265.774C150.765 265.774 150.448 265.839 150.168 265.97C149.897 266.101 149.668 266.278 149.482 266.502C149.295 266.717 149.15 266.969 149.048 267.258C148.954 267.547 148.908 267.851 148.908 268.168C148.908 268.485 148.954 268.789 149.048 269.078C149.15 269.367 149.295 269.624 149.482 269.848C149.668 270.072 149.897 270.249 150.168 270.38C150.448 270.511 150.765 270.576 151.12 270.576C151.474 270.576 151.787 270.511 152.058 270.38C152.338 270.249 152.571 270.072 152.758 269.848C152.944 269.624 153.084 269.367 153.178 269.078C153.28 268.789 153.332 268.485 153.332 268.168ZM156.529 266.292C156.529 266.115 156.524 265.886 156.515 265.606C156.505 265.326 156.491 265.079 156.473 264.864H157.719C157.737 265.032 157.751 265.228 157.761 265.452C157.77 265.667 157.775 265.844 157.775 265.984H157.817C158.003 265.592 158.274 265.279 158.629 265.046C158.993 264.803 159.399 264.682 159.847 264.682C160.052 264.682 160.225 264.701 160.365 264.738L160.309 265.956C160.122 265.909 159.921 265.886 159.707 265.886C159.389 265.886 159.114 265.947 158.881 266.068C158.647 266.18 158.451 266.334 158.293 266.53C158.143 266.726 158.031 266.955 157.957 267.216C157.882 267.468 157.845 267.734 157.845 268.014V271.5H156.529V266.292ZM164.121 270.072H164.149L165.983 264.864H167.383L164.163 273.068C164.051 273.348 163.929 273.595 163.799 273.81C163.668 274.034 163.514 274.221 163.337 274.37C163.159 274.529 162.949 274.65 162.707 274.734C162.473 274.818 162.193 274.86 161.867 274.86C161.727 274.86 161.582 274.851 161.433 274.832C161.293 274.823 161.148 274.799 160.999 274.762L161.125 273.6C161.349 273.675 161.568 273.712 161.783 273.712C162.128 273.712 162.385 273.614 162.553 273.418C162.721 273.231 162.875 272.961 163.015 272.606L163.435 271.5L160.593 264.864H162.063L164.121 270.072Z" fill="#16113D"/>
<g clip-path="url(#clip0_2_999)">
<path d="M54.7247 321.4H50.4497V322.975C50.4497 324.092 49.5412 325 48.4247 325C47.3081 325 46.3997 324.092 46.3997 322.975V319.555L44.5744 320.652C44.0315 320.975 43.6997 321.563 43.6997 322.193V323.523L41.4497 324.823C41.0194 325.07 40.8703 325.622 41.1206 326.052L43.3706 329.95C43.6181 330.38 44.1694 330.527 44.5997 330.279L47.5078 328.6H51.3497C52.3425 328.6 53.1497 327.793 53.1497 326.8H53.5997C54.0975 326.8 54.4997 326.398 54.4997 325.9V324.1H54.7247C55.0987 324.1 55.3997 323.799 55.3997 323.425V322.075C55.3997 321.701 55.0987 321.4 54.7247 321.4ZM58.8787 320.348L56.6287 316.45C56.3812 316.02 55.83 315.873 55.3997 316.121L52.4915 317.8H49.6172C49.2797 317.8 48.9506 317.896 48.6637 318.073L47.7215 318.661C47.4572 318.824 47.2997 319.113 47.2997 319.423V322.975C47.2997 323.597 47.8031 324.1 48.4247 324.1C49.0462 324.1 49.5497 323.597 49.5497 322.975V320.5H54.7247C55.5937 320.5 56.2997 321.206 56.2997 322.075V322.877L58.5497 321.577C58.98 321.327 59.1262 320.778 58.8787 320.348Z" fill="#16113D"/>
</g>
<path d="M72.59 327.5H71.204V317.588H72.59V327.5ZM75.0048 317.588H78.4208C78.7941 317.588 79.1674 317.63 79.5408 317.714C79.9141 317.798 80.2454 317.938 80.5348 318.134C80.8334 318.33 81.0714 318.587 81.2488 318.904C81.4354 319.221 81.5288 319.618 81.5288 320.094C81.5288 320.645 81.3701 321.107 81.0528 321.48C80.7354 321.853 80.3154 322.11 79.7928 322.25V322.278C80.1101 322.315 80.4041 322.399 80.6748 322.53C80.9454 322.651 81.1788 322.815 81.3748 323.02C81.5708 323.225 81.7201 323.468 81.8228 323.748C81.9348 324.028 81.9908 324.341 81.9908 324.686C81.9908 325.162 81.8928 325.577 81.6968 325.932C81.5008 326.287 81.2348 326.581 80.8988 326.814C80.5628 327.038 80.1661 327.211 79.7088 327.332C79.2608 327.444 78.7801 327.5 78.2668 327.5H75.0048V317.588ZM76.3908 321.774H78.1968C78.4581 321.774 78.7054 321.746 78.9388 321.69C79.1814 321.625 79.3914 321.531 79.5688 321.41C79.7461 321.279 79.8861 321.121 79.9888 320.934C80.0914 320.738 80.1428 320.505 80.1428 320.234C80.1428 319.702 79.9468 319.324 79.5548 319.1C79.1628 318.867 78.6354 318.75 77.9728 318.75H76.3908V321.774ZM76.3908 326.324H78.1268C78.4161 326.324 78.7054 326.301 78.9948 326.254C79.2934 326.198 79.5594 326.105 79.7928 325.974C80.0354 325.843 80.2268 325.671 80.3668 325.456C80.5161 325.232 80.5908 324.952 80.5908 324.616C80.5908 324.028 80.3901 323.603 79.9888 323.342C79.5874 323.081 79.0088 322.95 78.2528 322.95H76.3908V326.324ZM87.4872 317.588H90.5112C91.0432 317.588 91.5285 317.644 91.9672 317.756C92.4059 317.859 92.7792 318.022 93.0872 318.246C93.3952 318.47 93.6332 318.755 93.8012 319.1C93.9692 319.445 94.0532 319.861 94.0532 320.346C94.0532 320.841 93.9599 321.265 93.7732 321.62C93.5959 321.975 93.3439 322.264 93.0172 322.488C92.6999 322.712 92.3172 322.88 91.8692 322.992C91.4305 323.095 90.9545 323.146 90.4412 323.146H88.8732V327.5H87.4872V317.588ZM88.8732 321.97H90.3432C90.6792 321.97 90.9872 321.942 91.2672 321.886C91.5565 321.821 91.8039 321.727 92.0092 321.606C92.2145 321.475 92.3732 321.307 92.4852 321.102C92.5972 320.897 92.6532 320.645 92.6532 320.346C92.6532 320.047 92.5925 319.8 92.4712 319.604C92.3592 319.399 92.2005 319.235 91.9952 319.114C91.7992 318.983 91.5612 318.895 91.2812 318.848C91.0012 318.792 90.6979 318.764 90.3712 318.764H88.8732V321.97ZM99.0941 323.202C99.0941 322.707 98.9447 322.343 98.6461 322.11C98.3474 321.867 97.9507 321.746 97.4561 321.746C97.0827 321.746 96.7281 321.821 96.3921 321.97C96.0654 322.11 95.7901 322.292 95.5661 322.516L94.8661 321.676C95.1927 321.368 95.5894 321.125 96.0561 320.948C96.5321 320.771 97.0407 320.682 97.5821 320.682C98.0581 320.682 98.4687 320.752 98.8141 320.892C99.1687 321.023 99.4581 321.205 99.6821 321.438C99.9061 321.671 100.074 321.947 100.186 322.264C100.298 322.581 100.354 322.922 100.354 323.286V326.184C100.354 326.408 100.359 326.646 100.368 326.898C100.387 327.141 100.415 327.341 100.452 327.5H99.2621C99.1874 327.183 99.1501 326.865 99.1501 326.548H99.1081C98.8654 326.903 98.5574 327.178 98.1841 327.374C97.8201 327.57 97.3861 327.668 96.8821 327.668C96.6207 327.668 96.3454 327.631 96.0561 327.556C95.7761 327.491 95.5194 327.379 95.2861 327.22C95.0527 327.061 94.8567 326.851 94.6981 326.59C94.5487 326.329 94.4741 326.007 94.4741 325.624C94.4741 325.12 94.6094 324.723 94.8801 324.434C95.1507 324.135 95.5054 323.911 95.9441 323.762C96.3827 323.603 96.8774 323.501 97.4281 323.454C97.9787 323.407 98.5341 323.384 99.0941 323.384V323.202ZM98.7721 324.336C98.4454 324.336 98.1047 324.35 97.7501 324.378C97.4047 324.406 97.0874 324.462 96.7981 324.546C96.5181 324.63 96.2847 324.756 96.0981 324.924C95.9114 325.092 95.8181 325.316 95.8181 325.596C95.8181 325.792 95.8554 325.955 95.9301 326.086C96.0141 326.217 96.1214 326.324 96.2521 326.408C96.3827 326.492 96.5274 326.553 96.6861 326.59C96.8447 326.618 97.0081 326.632 97.1761 326.632C97.7921 326.632 98.2634 326.45 98.5901 326.086C98.9261 325.713 99.0941 325.246 99.0941 324.686V324.336H98.7721ZM102.552 322.292C102.552 322.115 102.547 321.886 102.538 321.606C102.529 321.326 102.515 321.079 102.496 320.864H103.742C103.761 321.032 103.775 321.228 103.784 321.452C103.793 321.667 103.798 321.844 103.798 321.984H103.84C104.027 321.592 104.297 321.279 104.652 321.046C105.016 320.803 105.422 320.682 105.87 320.682C106.075 320.682 106.248 320.701 106.388 320.738L106.332 321.956C106.145 321.909 105.945 321.886 105.73 321.886C105.413 321.886 105.137 321.947 104.904 322.068C104.671 322.18 104.475 322.334 104.316 322.53C104.167 322.726 104.055 322.955 103.98 323.216C103.905 323.468 103.868 323.734 103.868 324.014V327.5H102.552V322.292ZM110.708 321.942H108.944V325.4C108.944 325.801 109.019 326.091 109.168 326.268C109.318 326.436 109.556 326.52 109.882 326.52C110.004 326.52 110.134 326.506 110.274 326.478C110.414 326.45 110.54 326.408 110.652 326.352L110.694 327.43C110.536 327.486 110.358 327.528 110.162 327.556C109.976 327.593 109.78 327.612 109.574 327.612C108.949 327.612 108.468 327.439 108.132 327.094C107.806 326.749 107.642 326.231 107.642 325.54V321.942H106.368V320.864H107.642V318.96H108.944V320.864H110.708V321.942ZM113.258 320.864C113.276 321.032 113.29 321.223 113.3 321.438C113.309 321.643 113.314 321.816 113.314 321.956H113.356C113.44 321.779 113.552 321.615 113.692 321.466C113.841 321.307 114.009 321.172 114.196 321.06C114.382 320.939 114.588 320.845 114.812 320.78C115.036 320.715 115.269 320.682 115.512 320.682C115.941 320.682 116.31 320.757 116.618 320.906C116.926 321.046 117.182 321.237 117.388 321.48C117.593 321.723 117.742 322.007 117.836 322.334C117.938 322.661 117.99 323.011 117.99 323.384V327.5H116.674V323.818C116.674 323.547 116.65 323.291 116.604 323.048C116.566 322.805 116.492 322.591 116.38 322.404C116.268 322.217 116.114 322.068 115.918 321.956C115.722 321.844 115.47 321.788 115.162 321.788C114.639 321.788 114.21 321.989 113.874 322.39C113.547 322.782 113.384 323.309 113.384 323.972V327.5H112.068V322.292C112.068 322.115 112.063 321.886 112.054 321.606C112.044 321.326 112.03 321.079 112.012 320.864H113.258ZM125.074 323.594C125.065 323.333 125.018 323.09 124.934 322.866C124.859 322.633 124.743 322.432 124.584 322.264C124.435 322.096 124.243 321.965 124.01 321.872C123.786 321.769 123.52 321.718 123.212 321.718C122.932 321.718 122.666 321.769 122.414 321.872C122.171 321.965 121.957 322.096 121.77 322.264C121.593 322.432 121.443 322.633 121.322 322.866C121.21 323.09 121.145 323.333 121.126 323.594H125.074ZM126.404 324.126C126.404 324.201 126.404 324.275 126.404 324.35C126.404 324.425 126.399 324.499 126.39 324.574H121.126C121.135 324.854 121.196 325.12 121.308 325.372C121.429 325.615 121.588 325.829 121.784 326.016C121.98 326.193 122.204 326.333 122.456 326.436C122.717 326.539 122.993 326.59 123.282 326.59C123.73 326.59 124.117 326.492 124.444 326.296C124.771 326.1 125.027 325.862 125.214 325.582L126.138 326.324C125.783 326.791 125.363 327.136 124.878 327.36C124.402 327.575 123.87 327.682 123.282 327.682C122.778 327.682 122.311 327.598 121.882 327.43C121.453 327.262 121.084 327.029 120.776 326.73C120.468 326.422 120.225 326.053 120.048 325.624C119.871 325.195 119.782 324.719 119.782 324.196C119.782 323.683 119.866 323.211 120.034 322.782C120.211 322.343 120.454 321.97 120.762 321.662C121.07 321.354 121.434 321.116 121.854 320.948C122.274 320.771 122.727 320.682 123.212 320.682C123.697 320.682 124.136 320.761 124.528 320.92C124.929 321.079 125.265 321.307 125.536 321.606C125.816 321.905 126.031 322.269 126.18 322.698C126.329 323.118 126.404 323.594 126.404 324.126ZM128.241 322.292C128.241 322.115 128.237 321.886 128.227 321.606C128.218 321.326 128.204 321.079 128.185 320.864H129.431C129.45 321.032 129.464 321.228 129.473 321.452C129.483 321.667 129.487 321.844 129.487 321.984H129.529C129.716 321.592 129.987 321.279 130.341 321.046C130.705 320.803 131.111 320.682 131.559 320.682C131.765 320.682 131.937 320.701 132.077 320.738L132.021 321.956C131.835 321.909 131.634 321.886 131.419 321.886C131.102 321.886 130.827 321.947 130.593 322.068C130.36 322.18 130.164 322.334 130.005 322.53C129.856 322.726 129.744 322.955 129.669 323.216C129.595 323.468 129.557 323.734 129.557 324.014V327.5H128.241V322.292ZM136.898 322.544C136.748 322.301 136.538 322.105 136.268 321.956C135.997 321.797 135.694 321.718 135.358 321.718C135.208 321.718 135.059 321.737 134.91 321.774C134.76 321.802 134.625 321.853 134.504 321.928C134.392 321.993 134.298 322.082 134.224 322.194C134.158 322.297 134.126 322.427 134.126 322.586C134.126 322.866 134.252 323.076 134.504 323.216C134.756 323.347 135.134 323.468 135.638 323.58C135.955 323.655 136.249 323.743 136.52 323.846C136.79 323.949 137.024 324.079 137.22 324.238C137.425 324.387 137.584 324.569 137.696 324.784C137.808 324.999 137.864 325.251 137.864 325.54C137.864 325.932 137.789 326.263 137.64 326.534C137.49 326.805 137.29 327.029 137.038 327.206C136.795 327.374 136.515 327.495 136.198 327.57C135.88 327.645 135.554 327.682 135.218 327.682C134.714 327.682 134.219 327.584 133.734 327.388C133.258 327.192 132.861 326.893 132.544 326.492L133.482 325.694C133.659 325.955 133.902 326.175 134.21 326.352C134.527 326.529 134.872 326.618 135.246 326.618C135.414 326.618 135.572 326.604 135.722 326.576C135.88 326.539 136.02 326.483 136.142 326.408C136.272 326.333 136.375 326.235 136.45 326.114C136.524 325.993 136.562 325.839 136.562 325.652C136.562 325.344 136.412 325.115 136.114 324.966C135.824 324.817 135.395 324.677 134.826 324.546C134.602 324.49 134.373 324.425 134.14 324.35C133.916 324.266 133.71 324.154 133.524 324.014C133.337 323.874 133.183 323.701 133.062 323.496C132.95 323.281 132.894 323.02 132.894 322.712C132.894 322.357 132.964 322.054 133.104 321.802C133.253 321.541 133.444 321.331 133.678 321.172C133.911 321.004 134.177 320.883 134.476 320.808C134.774 320.724 135.082 320.682 135.4 320.682C135.876 320.682 136.333 320.775 136.772 320.962C137.22 321.149 137.565 321.419 137.808 321.774L136.898 322.544ZM140.906 321.872C141.065 321.545 141.336 321.265 141.718 321.032C142.101 320.799 142.53 320.682 143.006 320.682C143.436 320.682 143.804 320.757 144.112 320.906C144.42 321.046 144.677 321.237 144.882 321.48C145.088 321.723 145.237 322.007 145.33 322.334C145.433 322.661 145.484 323.011 145.484 323.384V327.5H144.168V323.832C144.168 323.561 144.145 323.305 144.098 323.062C144.061 322.819 143.986 322.605 143.874 322.418C143.762 322.231 143.608 322.082 143.412 321.97C143.226 321.858 142.978 321.802 142.67 321.802C142.148 321.802 141.718 322.003 141.382 322.404C141.046 322.796 140.878 323.323 140.878 323.986V327.5H139.562V316.916H140.878V321.872H140.906ZM149.04 327.5H147.724V320.864H149.04V327.5ZM149.264 318.47C149.264 318.713 149.176 318.913 148.998 319.072C148.83 319.231 148.625 319.31 148.382 319.31C148.14 319.31 147.934 319.231 147.766 319.072C147.598 318.904 147.514 318.703 147.514 318.47C147.514 318.227 147.598 318.027 147.766 317.868C147.934 317.7 148.14 317.616 148.382 317.616C148.625 317.616 148.83 317.7 148.998 317.868C149.176 318.027 149.264 318.227 149.264 318.47ZM152.649 330.86H151.333V320.864H152.621V321.9H152.663C152.878 321.545 153.191 321.256 153.601 321.032C154.021 320.799 154.507 320.682 155.057 320.682C155.552 320.682 156 320.771 156.401 320.948C156.812 321.125 157.162 321.373 157.451 321.69C157.75 322.007 157.979 322.381 158.137 322.81C158.296 323.23 158.375 323.683 158.375 324.168C158.375 324.653 158.296 325.111 158.137 325.54C157.979 325.969 157.755 326.343 157.465 326.66C157.176 326.977 156.826 327.229 156.415 327.416C156.005 327.593 155.543 327.682 155.029 327.682C154.553 327.682 154.105 327.579 153.685 327.374C153.265 327.169 152.934 326.879 152.691 326.506H152.649V330.86ZM157.017 324.168C157.017 323.86 156.971 323.561 156.877 323.272C156.784 322.983 156.644 322.726 156.457 322.502C156.271 322.278 156.037 322.101 155.757 321.97C155.487 321.839 155.169 321.774 154.805 321.774C154.469 321.774 154.161 321.839 153.881 321.97C153.611 322.101 153.377 322.278 153.181 322.502C152.985 322.726 152.831 322.983 152.719 323.272C152.617 323.561 152.565 323.865 152.565 324.182C152.565 324.499 152.617 324.803 152.719 325.092C152.831 325.381 152.985 325.638 153.181 325.862C153.377 326.077 153.611 326.249 153.881 326.38C154.161 326.511 154.469 326.576 154.805 326.576C155.169 326.576 155.487 326.511 155.757 326.38C156.037 326.24 156.271 326.058 156.457 325.834C156.644 325.61 156.784 325.353 156.877 325.064C156.971 324.775 157.017 324.476 157.017 324.168Z" fill="#16113D"/>
<path d="M44.1666 376.5C44.3877 376.5 44.5996 376.588 44.7559 376.744C44.9122 376.9 45 377.112 45 377.333C46.3093 377.331 47.5808 377.772 48.6083 378.583H50.4166C51.5275 378.583 52.525 379.067 53.2116 379.833H55.8333C56.621 379.833 57.3927 380.056 58.0588 380.477C58.7248 380.897 59.2581 381.498 59.5966 382.209C57.6258 384.81 54.435 386.5 50.8333 386.5C48.5083 386.5 46.5416 385.997 44.95 385.118C44.8917 385.279 44.7852 385.418 44.645 385.516C44.5048 385.614 44.3378 385.667 44.1666 385.667H41.6666C41.4456 385.667 41.2337 385.579 41.0774 385.423C40.9211 385.266 40.8333 385.054 40.8333 384.833V377.333C40.8333 377.112 40.9211 376.9 41.0774 376.744C41.2337 376.588 41.4456 376.5 41.6666 376.5H44.1666ZM45.0008 379L45 383.185L45.0375 383.212C46.5333 384.262 48.4816 384.833 50.8333 384.833C53.3366 384.833 55.6658 383.87 57.3625 382.225L57.4733 382.114L57.3733 382.031C56.9798 381.723 56.5028 381.54 56.0041 381.506L55.8333 381.5H54.0741C54.1341 381.768 54.1666 382.047 54.1666 382.333V383.167H46.6666V381.5L52.325 381.499L52.2966 381.434C52.1369 381.1 51.8913 380.815 51.5849 380.608C51.2785 380.4 50.9225 380.278 50.5533 380.254L50.4166 380.25H47.975C47.5877 379.854 47.1252 379.539 46.6146 379.325C46.104 379.11 45.5556 379 45.0016 379H45.0008ZM43.3333 378.167H42.5V384H43.3333V378.167ZM55 373.167C55.663 373.167 56.2989 373.43 56.7677 373.899C57.2366 374.368 57.5 375.004 57.5 375.667C57.5 376.33 57.2366 376.966 56.7677 377.434C56.2989 377.903 55.663 378.167 55 378.167C54.3369 378.167 53.7011 377.903 53.2322 377.434C52.7634 376.966 52.5 376.33 52.5 375.667C52.5 375.004 52.7634 374.368 53.2322 373.899C53.7011 373.43 54.3369 373.167 55 373.167ZM55 374.833C54.779 374.833 54.567 374.921 54.4107 375.077C54.2544 375.234 54.1666 375.446 54.1666 375.667C54.1666 375.888 54.2544 376.1 54.4107 376.256C54.567 376.412 54.779 376.5 55 376.5C55.221 376.5 55.433 376.412 55.5892 376.256C55.7455 376.1 55.8333 375.888 55.8333 375.667C55.8333 375.446 55.7455 375.234 55.5892 375.077C55.433 374.921 55.221 374.833 55 374.833ZM49.1666 370.667C49.8297 370.667 50.4656 370.93 50.9344 371.399C51.4033 371.868 51.6666 372.504 51.6666 373.167C51.6666 373.83 51.4033 374.466 50.9344 374.934C50.4656 375.403 49.8297 375.667 49.1666 375.667C48.5036 375.667 47.8677 375.403 47.3989 374.934C46.93 374.466 46.6666 373.83 46.6666 373.167C46.6666 372.504 46.93 371.868 47.3989 371.399C47.8677 370.93 48.5036 370.667 49.1666 370.667ZM49.1666 372.333C48.9456 372.333 48.7337 372.421 48.5774 372.577C48.4211 372.734 48.3333 372.946 48.3333 373.167C48.3333 373.388 48.4211 373.6 48.5774 373.756C48.7337 373.912 48.9456 374 49.1666 374C49.3877 374 49.5996 373.912 49.7559 373.756C49.9122 373.6 50 373.388 50 373.167C50 372.946 49.9122 372.734 49.7559 372.577C49.5996 372.421 49.3877 372.333 49.1666 372.333Z" fill="#16113D"/>
<path d="M72.59 383.5H71.204V373.588H72.59V383.5ZM76.1248 376.864C76.1434 377.032 76.1574 377.223 76.1668 377.438C76.1761 377.643 76.1808 377.816 76.1808 377.956H76.2228C76.3068 377.779 76.4188 377.615 76.5588 377.466C76.7081 377.307 76.8761 377.172 77.0628 377.06C77.2494 376.939 77.4548 376.845 77.6788 376.78C77.9028 376.715 78.1361 376.682 78.3788 376.682C78.8081 376.682 79.1768 376.757 79.4848 376.906C79.7928 377.046 80.0494 377.237 80.2548 377.48C80.4601 377.723 80.6094 378.007 80.7028 378.334C80.8054 378.661 80.8568 379.011 80.8568 379.384V383.5H79.5408V379.818C79.5408 379.547 79.5174 379.291 79.4708 379.048C79.4334 378.805 79.3588 378.591 79.2468 378.404C79.1348 378.217 78.9808 378.068 78.7848 377.956C78.5888 377.844 78.3368 377.788 78.0288 377.788C77.5061 377.788 77.0768 377.989 76.7408 378.39C76.4141 378.782 76.2508 379.309 76.2508 379.972V383.5H74.9348V378.292C74.9348 378.115 74.9301 377.886 74.9208 377.606C74.9114 377.326 74.8974 377.079 74.8788 376.864H76.1248ZM86.2052 383.5H84.7772L82.0752 376.864H83.5312L85.4772 382.086H85.5052L87.4652 376.864H88.8652L86.2052 383.5ZM94.9959 379.594C94.9866 379.333 94.9399 379.09 94.8559 378.866C94.7812 378.633 94.6646 378.432 94.5059 378.264C94.3566 378.096 94.1652 377.965 93.9319 377.872C93.7079 377.769 93.4419 377.718 93.1339 377.718C92.8539 377.718 92.5879 377.769 92.3359 377.872C92.0932 377.965 91.8786 378.096 91.6919 378.264C91.5146 378.432 91.3652 378.633 91.2439 378.866C91.1319 379.09 91.0666 379.333 91.0479 379.594H94.9959ZM96.3259 380.126C96.3259 380.201 96.3259 380.275 96.3259 380.35C96.3259 380.425 96.3212 380.499 96.3119 380.574H91.0479C91.0572 380.854 91.1179 381.12 91.2299 381.372C91.3512 381.615 91.5099 381.829 91.7059 382.016C91.9019 382.193 92.1259 382.333 92.3779 382.436C92.6392 382.539 92.9146 382.59 93.2039 382.59C93.6519 382.59 94.0392 382.492 94.3659 382.296C94.6926 382.1 94.9492 381.862 95.1359 381.582L96.0599 382.324C95.7052 382.791 95.2852 383.136 94.7999 383.36C94.3239 383.575 93.7919 383.682 93.2039 383.682C92.6999 383.682 92.2332 383.598 91.8039 383.43C91.3746 383.262 91.0059 383.029 90.6979 382.73C90.3899 382.422 90.1472 382.053 89.9699 381.624C89.7926 381.195 89.7039 380.719 89.7039 380.196C89.7039 379.683 89.7879 379.211 89.9559 378.782C90.1332 378.343 90.3759 377.97 90.6839 377.662C90.9919 377.354 91.3559 377.116 91.7759 376.948C92.1959 376.771 92.6486 376.682 93.1339 376.682C93.6192 376.682 94.0579 376.761 94.4499 376.92C94.8512 377.079 95.1872 377.307 95.4579 377.606C95.7379 377.905 95.9526 378.269 96.1019 378.698C96.2512 379.118 96.3259 379.594 96.3259 380.126ZM101.747 378.544C101.598 378.301 101.388 378.105 101.117 377.956C100.847 377.797 100.543 377.718 100.207 377.718C100.058 377.718 99.9086 377.737 99.7593 377.774C99.61 377.802 99.4746 377.853 99.3533 377.928C99.2413 377.993 99.148 378.082 99.0733 378.194C99.008 378.297 98.9753 378.427 98.9753 378.586C98.9753 378.866 99.1013 379.076 99.3533 379.216C99.6053 379.347 99.9833 379.468 100.487 379.58C100.805 379.655 101.099 379.743 101.369 379.846C101.64 379.949 101.873 380.079 102.069 380.238C102.275 380.387 102.433 380.569 102.545 380.784C102.657 380.999 102.713 381.251 102.713 381.54C102.713 381.932 102.639 382.263 102.489 382.534C102.34 382.805 102.139 383.029 101.887 383.206C101.645 383.374 101.365 383.495 101.047 383.57C100.73 383.645 100.403 383.682 100.067 383.682C99.5633 383.682 99.0686 383.584 98.5833 383.388C98.1073 383.192 97.7106 382.893 97.3933 382.492L98.3313 381.694C98.5086 381.955 98.7513 382.175 99.0593 382.352C99.3766 382.529 99.722 382.618 100.095 382.618C100.263 382.618 100.422 382.604 100.571 382.576C100.73 382.539 100.87 382.483 100.991 382.408C101.122 382.333 101.225 382.235 101.299 382.114C101.374 381.993 101.411 381.839 101.411 381.652C101.411 381.344 101.262 381.115 100.963 380.966C100.674 380.817 100.245 380.677 99.6753 380.546C99.4513 380.49 99.2226 380.425 98.9893 380.35C98.7653 380.266 98.56 380.154 98.3733 380.014C98.1866 379.874 98.0326 379.701 97.9113 379.496C97.7993 379.281 97.7433 379.02 97.7433 378.712C97.7433 378.357 97.8133 378.054 97.9533 377.802C98.1026 377.541 98.294 377.331 98.5273 377.172C98.7606 377.004 99.0266 376.883 99.3253 376.808C99.624 376.724 99.932 376.682 100.249 376.682C100.725 376.682 101.183 376.775 101.621 376.962C102.069 377.149 102.415 377.419 102.657 377.774L101.747 378.544ZM107.632 377.942H105.868V381.4C105.868 381.801 105.943 382.091 106.092 382.268C106.241 382.436 106.479 382.52 106.806 382.52C106.927 382.52 107.058 382.506 107.198 382.478C107.338 382.45 107.464 382.408 107.576 382.352L107.618 383.43C107.459 383.486 107.282 383.528 107.086 383.556C106.899 383.593 106.703 383.612 106.498 383.612C105.873 383.612 105.392 383.439 105.056 383.094C104.729 382.749 104.566 382.231 104.566 381.54V377.942H103.292V376.864H104.566V374.96H105.868V376.864H107.632V377.942ZM110.279 377.956C110.447 377.601 110.713 377.303 111.077 377.06C111.451 376.808 111.889 376.682 112.393 376.682C112.841 376.682 113.243 376.785 113.597 376.99C113.961 377.195 114.246 377.536 114.451 378.012C114.675 377.583 114.988 377.256 115.389 377.032C115.791 376.799 116.229 376.682 116.705 376.682C117.135 376.682 117.503 376.757 117.811 376.906C118.119 377.046 118.376 377.237 118.581 377.48C118.787 377.723 118.936 378.007 119.029 378.334C119.132 378.661 119.183 379.011 119.183 379.384V383.5H117.867V379.818C117.867 379.547 117.844 379.291 117.797 379.048C117.751 378.805 117.671 378.591 117.559 378.404C117.447 378.217 117.298 378.068 117.111 377.956C116.925 377.844 116.687 377.788 116.397 377.788C116.099 377.788 115.842 377.853 115.627 377.984C115.413 378.105 115.235 378.269 115.095 378.474C114.965 378.67 114.867 378.894 114.801 379.146C114.745 379.398 114.717 379.655 114.717 379.916V383.5H113.401V379.552C113.401 379.291 113.378 379.053 113.331 378.838C113.285 378.623 113.205 378.441 113.093 378.292C112.981 378.133 112.837 378.012 112.659 377.928C112.482 377.835 112.263 377.788 112.001 377.788C111.516 377.788 111.11 377.989 110.783 378.39C110.466 378.782 110.307 379.309 110.307 379.972V383.5H108.991V378.292C108.991 378.115 108.987 377.886 108.977 377.606C108.968 377.326 108.954 377.079 108.935 376.864H110.181C110.2 377.032 110.214 377.223 110.223 377.438C110.233 377.643 110.237 377.816 110.237 377.956H110.279ZM126.263 379.594C126.254 379.333 126.207 379.09 126.123 378.866C126.049 378.633 125.932 378.432 125.773 378.264C125.624 378.096 125.433 377.965 125.199 377.872C124.975 377.769 124.709 377.718 124.401 377.718C124.121 377.718 123.855 377.769 123.603 377.872C123.361 377.965 123.146 378.096 122.959 378.264C122.782 378.432 122.633 378.633 122.511 378.866C122.399 379.09 122.334 379.333 122.315 379.594H126.263ZM127.593 380.126C127.593 380.201 127.593 380.275 127.593 380.35C127.593 380.425 127.589 380.499 127.579 380.574H122.315C122.325 380.854 122.385 381.12 122.497 381.372C122.619 381.615 122.777 381.829 122.973 382.016C123.169 382.193 123.393 382.333 123.645 382.436C123.907 382.539 124.182 382.59 124.471 382.59C124.919 382.59 125.307 382.492 125.633 382.296C125.96 382.1 126.217 381.862 126.403 381.582L127.327 382.324C126.973 382.791 126.553 383.136 126.067 383.36C125.591 383.575 125.059 383.682 124.471 383.682C123.967 383.682 123.501 383.598 123.071 383.43C122.642 383.262 122.273 383.029 121.965 382.73C121.657 382.422 121.415 382.053 121.237 381.624C121.06 381.195 120.971 380.719 120.971 380.196C120.971 379.683 121.055 379.211 121.223 378.782C121.401 378.343 121.643 377.97 121.951 377.662C122.259 377.354 122.623 377.116 123.043 376.948C123.463 376.771 123.916 376.682 124.401 376.682C124.887 376.682 125.325 376.761 125.717 376.92C126.119 377.079 126.455 377.307 126.725 377.606C127.005 377.905 127.22 378.269 127.369 378.698C127.519 379.118 127.593 379.594 127.593 380.126ZM130.621 376.864C130.64 377.032 130.654 377.223 130.663 377.438C130.672 377.643 130.677 377.816 130.677 377.956H130.719C130.803 377.779 130.915 377.615 131.055 377.466C131.204 377.307 131.372 377.172 131.559 377.06C131.746 376.939 131.951 376.845 132.175 376.78C132.399 376.715 132.632 376.682 132.875 376.682C133.304 376.682 133.673 376.757 133.981 376.906C134.289 377.046 134.546 377.237 134.751 377.48C134.956 377.723 135.106 378.007 135.199 378.334C135.302 378.661 135.353 379.011 135.353 379.384V383.5H134.037V379.818C134.037 379.547 134.014 379.291 133.967 379.048C133.93 378.805 133.855 378.591 133.743 378.404C133.631 378.217 133.477 378.068 133.281 377.956C133.085 377.844 132.833 377.788 132.525 377.788C132.002 377.788 131.573 377.989 131.237 378.39C130.91 378.782 130.747 379.309 130.747 379.972V383.5H129.431V378.292C129.431 378.115 129.426 377.886 129.417 377.606C129.408 377.326 129.394 377.079 129.375 376.864H130.621ZM140.827 377.942H139.063V381.4C139.063 381.801 139.138 382.091 139.287 382.268C139.437 382.436 139.675 382.52 140.001 382.52C140.123 382.52 140.253 382.506 140.393 382.478C140.533 382.45 140.659 382.408 140.771 382.352L140.813 383.43C140.655 383.486 140.477 383.528 140.281 383.556C140.095 383.593 139.899 383.612 139.693 383.612C139.068 383.612 138.587 383.439 138.251 383.094C137.925 382.749 137.761 382.231 137.761 381.54V377.942H136.487V376.864H137.761V374.96H139.063V376.864H140.827V377.942ZM145.771 378.544C145.621 378.301 145.411 378.105 145.141 377.956C144.87 377.797 144.567 377.718 144.231 377.718C144.081 377.718 143.932 377.737 143.783 377.774C143.633 377.802 143.498 377.853 143.377 377.928C143.265 377.993 143.171 378.082 143.097 378.194C143.031 378.297 142.999 378.427 142.999 378.586C142.999 378.866 143.125 379.076 143.377 379.216C143.629 379.347 144.007 379.468 144.511 379.58C144.828 379.655 145.122 379.743 145.393 379.846C145.663 379.949 145.897 380.079 146.093 380.238C146.298 380.387 146.457 380.569 146.569 380.784C146.681 380.999 146.737 381.251 146.737 381.54C146.737 381.932 146.662 382.263 146.513 382.534C146.363 382.805 146.163 383.029 145.911 383.206C145.668 383.374 145.388 383.495 145.071 383.57C144.753 383.645 144.427 383.682 144.091 383.682C143.587 383.682 143.092 383.584 142.607 383.388C142.131 383.192 141.734 382.893 141.417 382.492L142.355 381.694C142.532 381.955 142.775 382.175 143.083 382.352C143.4 382.529 143.745 382.618 144.119 382.618C144.287 382.618 144.445 382.604 144.595 382.576C144.753 382.539 144.893 382.483 145.015 382.408C145.145 382.333 145.248 382.235 145.323 382.114C145.397 381.993 145.435 381.839 145.435 381.652C145.435 381.344 145.285 381.115 144.987 380.966C144.697 380.817 144.268 380.677 143.699 380.546C143.475 380.49 143.246 380.425 143.013 380.35C142.789 380.266 142.583 380.154 142.397 380.014C142.21 379.874 142.056 379.701 141.935 379.496C141.823 379.281 141.767 379.02 141.767 378.712C141.767 378.357 141.837 378.054 141.977 377.802C142.126 377.541 142.317 377.331 142.551 377.172C142.784 377.004 143.05 376.883 143.349 376.808C143.647 376.724 143.955 376.682 144.273 376.682C144.749 376.682 145.206 376.775 145.645 376.962C146.093 377.149 146.438 377.419 146.681 377.774L145.771 378.544ZM158.473 381.162L160.741 383.5H158.907L157.675 382.198C157.302 382.665 156.877 383.029 156.401 383.29C155.935 383.551 155.356 383.682 154.665 383.682C154.236 383.682 153.825 383.621 153.433 383.5C153.041 383.379 152.696 383.201 152.397 382.968C152.108 382.725 151.875 382.431 151.697 382.086C151.529 381.731 151.445 381.325 151.445 380.868C151.445 380.495 151.506 380.163 151.627 379.874C151.758 379.575 151.926 379.309 152.131 379.076C152.337 378.843 152.575 378.637 152.845 378.46C153.116 378.283 153.391 378.129 153.671 377.998C153.354 377.671 153.083 377.326 152.859 376.962C152.645 376.589 152.537 376.178 152.537 375.73C152.537 375.329 152.607 374.979 152.747 374.68C152.897 374.381 153.093 374.134 153.335 373.938C153.587 373.733 153.872 373.583 154.189 373.49C154.507 373.387 154.838 373.336 155.183 373.336C155.529 373.336 155.855 373.387 156.163 373.49C156.471 373.583 156.742 373.728 156.975 373.924C157.209 374.12 157.395 374.363 157.535 374.652C157.675 374.941 157.745 375.277 157.745 375.66C157.745 375.987 157.685 376.281 157.563 376.542C157.451 376.803 157.297 377.041 157.101 377.256C156.905 377.471 156.677 377.662 156.415 377.83C156.163 377.998 155.897 378.147 155.617 378.278L157.591 380.308L158.837 378.208H160.377L158.473 381.162ZM156.471 375.688C156.471 375.333 156.35 375.035 156.107 374.792C155.874 374.549 155.571 374.428 155.197 374.428C154.815 374.428 154.497 374.549 154.245 374.792C153.993 375.035 153.867 375.352 153.867 375.744C153.867 375.903 153.895 376.061 153.951 376.22C154.017 376.379 154.096 376.537 154.189 376.696C154.283 376.845 154.385 376.985 154.497 377.116C154.619 377.247 154.735 377.363 154.847 377.466C155.053 377.373 155.253 377.27 155.449 377.158C155.645 377.046 155.818 376.915 155.967 376.766C156.117 376.617 156.238 376.453 156.331 376.276C156.425 376.099 156.471 375.903 156.471 375.688ZM154.441 378.852C153.956 379.057 153.569 379.314 153.279 379.622C152.99 379.93 152.845 380.336 152.845 380.84C152.845 381.101 152.897 381.339 152.999 381.554C153.102 381.769 153.237 381.951 153.405 382.1C153.583 382.249 153.783 382.366 154.007 382.45C154.231 382.525 154.46 382.562 154.693 382.562C155.169 382.562 155.571 382.459 155.897 382.254C156.224 382.039 156.523 381.727 156.793 381.316L154.441 378.852ZM166.981 383.5H165.595V373.588H171.783V374.806H166.981V377.886H171.475V379.076H166.981V383.5ZM177.57 383.5C177.551 383.332 177.537 383.145 177.528 382.94C177.518 382.725 177.514 382.548 177.514 382.408H177.486C177.318 382.763 177.033 383.066 176.632 383.318C176.24 383.561 175.801 383.682 175.316 383.682C174.886 383.682 174.513 383.612 174.196 383.472C173.888 383.332 173.631 383.141 173.426 382.898C173.23 382.646 173.08 382.357 172.978 382.03C172.884 381.703 172.838 381.353 172.838 380.98V376.864H174.154V380.532C174.154 380.803 174.172 381.064 174.21 381.316C174.256 381.559 174.336 381.773 174.448 381.96C174.56 382.147 174.714 382.296 174.91 382.408C175.106 382.52 175.358 382.576 175.666 382.576C176.198 382.576 176.627 382.38 176.954 381.988C177.28 381.587 177.444 381.055 177.444 380.392V376.864H178.76V382.072C178.76 382.249 178.764 382.478 178.774 382.758C178.783 383.038 178.797 383.285 178.816 383.5H177.57ZM182.232 376.864C182.251 377.032 182.265 377.223 182.274 377.438C182.284 377.643 182.288 377.816 182.288 377.956H182.33C182.414 377.779 182.526 377.615 182.666 377.466C182.816 377.307 182.984 377.172 183.17 377.06C183.357 376.939 183.562 376.845 183.786 376.78C184.01 376.715 184.244 376.682 184.486 376.682C184.916 376.682 185.284 376.757 185.592 376.906C185.9 377.046 186.157 377.237 186.362 377.48C186.568 377.723 186.717 378.007 186.81 378.334C186.913 378.661 186.964 379.011 186.964 379.384V383.5H185.648V379.818C185.648 379.547 185.625 379.291 185.578 379.048C185.541 378.805 185.466 378.591 185.354 378.404C185.242 378.217 185.088 378.068 184.892 377.956C184.696 377.844 184.444 377.788 184.136 377.788C183.614 377.788 183.184 377.989 182.848 378.39C182.522 378.782 182.358 379.309 182.358 379.972V383.5H181.042V378.292C181.042 378.115 181.038 377.886 181.028 377.606C181.019 377.326 181.005 377.079 180.986 376.864H182.232ZM194.483 382.45C194.231 382.851 193.885 383.159 193.447 383.374C193.017 383.579 192.565 383.682 192.089 383.682C191.575 383.682 191.113 383.593 190.703 383.416C190.292 383.229 189.942 382.977 189.653 382.66C189.363 382.343 189.139 381.969 188.981 381.54C188.822 381.111 188.743 380.653 188.743 380.168C188.743 379.683 188.822 379.23 188.981 378.81C189.139 378.381 189.363 378.007 189.653 377.69C189.951 377.373 190.306 377.125 190.717 376.948C191.127 376.771 191.58 376.682 192.075 376.682C192.616 376.682 193.087 376.799 193.489 377.032C193.89 377.256 194.207 377.531 194.441 377.858H194.469V372.916H195.785V383.5H194.511V382.45H194.483ZM190.115 380.168C190.115 380.476 190.161 380.775 190.255 381.064C190.348 381.353 190.488 381.61 190.675 381.834C190.861 382.058 191.09 382.24 191.361 382.38C191.631 382.511 191.949 382.576 192.313 382.576C192.649 382.576 192.952 382.511 193.223 382.38C193.503 382.249 193.741 382.077 193.937 381.862C194.133 381.638 194.282 381.381 194.385 381.092C194.497 380.803 194.553 380.499 194.553 380.182C194.553 379.865 194.497 379.561 194.385 379.272C194.282 378.983 194.133 378.726 193.937 378.502C193.741 378.278 193.503 378.101 193.223 377.97C192.952 377.839 192.649 377.774 192.313 377.774C191.949 377.774 191.631 377.839 191.361 377.97C191.09 378.101 190.861 378.278 190.675 378.502C190.488 378.726 190.348 378.983 190.255 379.272C190.161 379.561 190.115 379.86 190.115 380.168ZM206.771 381.204H206.799L209.725 373.588H211.881V383.5H210.495V375.212H210.467L207.177 383.5H206.295L203.019 375.212H202.991V383.5H201.647V373.588H203.803L206.771 381.204ZM214.742 384.634C215.031 384.961 215.391 385.222 215.82 385.418C216.259 385.614 216.707 385.712 217.164 385.712C217.603 385.712 217.971 385.647 218.27 385.516C218.569 385.395 218.807 385.222 218.984 384.998C219.171 384.783 219.301 384.527 219.376 384.228C219.46 383.929 219.502 383.607 219.502 383.262V382.408H219.474C219.231 382.781 218.9 383.066 218.48 383.262C218.06 383.458 217.612 383.556 217.136 383.556C216.632 383.556 216.17 383.467 215.75 383.29C215.339 383.113 214.989 382.87 214.7 382.562C214.411 382.254 214.187 381.895 214.028 381.484C213.869 381.064 213.79 380.616 213.79 380.14C213.79 379.664 213.869 379.216 214.028 378.796C214.187 378.376 214.411 378.012 214.7 377.704C214.989 377.387 215.339 377.139 215.75 376.962C216.161 376.775 216.618 376.682 217.122 376.682C217.598 376.682 218.051 376.785 218.48 376.99C218.919 377.195 219.264 377.508 219.516 377.928H219.544V376.864H220.818V383.164C220.818 383.649 220.757 384.111 220.636 384.55C220.515 384.998 220.309 385.39 220.02 385.726C219.731 386.071 219.353 386.347 218.886 386.552C218.419 386.757 217.841 386.86 217.15 386.86C216.571 386.86 215.988 386.753 215.4 386.538C214.821 386.333 214.322 386.039 213.902 385.656L214.742 384.634ZM215.148 380.112C215.148 380.42 215.195 380.714 215.288 380.994C215.391 381.274 215.535 381.521 215.722 381.736C215.918 381.951 216.151 382.123 216.422 382.254C216.693 382.385 217.001 382.45 217.346 382.45C217.682 382.45 217.99 382.389 218.27 382.268C218.55 382.147 218.788 381.983 218.984 381.778C219.18 381.563 219.329 381.316 219.432 381.036C219.544 380.747 219.6 380.439 219.6 380.112C219.6 379.795 219.544 379.496 219.432 379.216C219.329 378.936 219.175 378.689 218.97 378.474C218.774 378.259 218.536 378.091 218.256 377.97C217.985 377.839 217.682 377.774 217.346 377.774C217.001 377.774 216.693 377.839 216.422 377.97C216.151 378.091 215.918 378.259 215.722 378.474C215.535 378.679 215.391 378.927 215.288 379.216C215.195 379.496 215.148 379.795 215.148 380.112ZM224.358 377.956C224.526 377.601 224.792 377.303 225.156 377.06C225.529 376.808 225.968 376.682 226.472 376.682C226.92 376.682 227.321 376.785 227.676 376.99C228.04 377.195 228.324 377.536 228.53 378.012C228.754 377.583 229.066 377.256 229.468 377.032C229.869 376.799 230.308 376.682 230.784 376.682C231.213 376.682 231.582 376.757 231.89 376.906C232.198 377.046 232.454 377.237 232.66 377.48C232.865 377.723 233.014 378.007 233.108 378.334C233.21 378.661 233.262 379.011 233.262 379.384V383.5H231.946V379.818C231.946 379.547 231.922 379.291 231.876 379.048C231.829 378.805 231.75 378.591 231.638 378.404C231.526 378.217 231.376 378.068 231.19 377.956C231.003 377.844 230.765 377.788 230.476 377.788C230.177 377.788 229.92 377.853 229.706 377.984C229.491 378.105 229.314 378.269 229.174 378.474C229.043 378.67 228.945 378.894 228.88 379.146C228.824 379.398 228.796 379.655 228.796 379.916V383.5H227.48V379.552C227.48 379.291 227.456 379.053 227.41 378.838C227.363 378.623 227.284 378.441 227.172 378.292C227.06 378.133 226.915 378.012 226.738 377.928C226.56 377.835 226.341 377.788 226.08 377.788C225.594 377.788 225.188 377.989 224.862 378.39C224.544 378.782 224.386 379.309 224.386 379.972V383.5H223.07V378.292C223.07 378.115 223.065 377.886 223.056 377.606C223.046 377.326 223.032 377.079 223.014 376.864H224.26C224.278 377.032 224.292 377.223 224.302 377.438C224.311 377.643 224.316 377.816 224.316 377.956H224.358ZM238.732 377.942H236.968V381.4C236.968 381.801 237.042 382.091 237.192 382.268C237.341 382.436 237.579 382.52 237.906 382.52C238.027 382.52 238.158 382.506 238.298 382.478C238.438 382.45 238.564 382.408 238.676 382.352L238.718 383.43C238.559 383.486 238.382 383.528 238.186 383.556C237.999 383.593 237.803 383.612 237.598 383.612C236.972 383.612 236.492 383.439 236.156 383.094C235.829 382.749 235.666 382.231 235.666 381.54V377.942H234.392V376.864H235.666V374.96H236.968V376.864H238.732V377.942Z" fill="#16113D"/>
<rect y="83" width="4" height="32" fill="#4D49B4"/>
<rect x="24" y="481" width="309" height="1" fill="#F2F2F2"/>
<defs>
<clipPath id="clip0_2_999">
<rect width="18" height="14.4" fill="white" transform="translate(41 316)"/>
</clipPath>
</defs>
</svg>
